<svg preserveAspectRatio="none" width="100%" height="100%" overflow="visible" style="display: block;" viewBox="0 0 241.154 60" fill="none" xmlns="http://www.w3.org/2000/svg">
<g id="Rectangle 279336344">
<mask id="path-1-inside-1_4937_11114" fill="white">
<path d="M0 30C0 13.4315 13.4315 0 30 0L211.154 0C227.722 0 241.154 13.4315 241.154 30C241.154 46.5685 227.722 60 211.154 60H30C13.4315 60 0 46.5685 0 30Z"/>
</mask>
<path d="M0 30C0 13.4315 13.4315 0 30 0L211.154 0C227.722 0 241.154 13.4315 241.154 30C241.154 46.5685 227.722 60 211.154 60H30C13.4315 60 0 46.5685 0 30Z" fill="url(#paint0_linear_4937_11114)" fill-opacity="0.96"/>
<g clip-path="url(#paint1_angular_4937_11114_clip_path)" data-figma-skip-parse="true" mask="url(#path-1-inside-1_4937_11114)"><g transform="matrix(0.144304 0.00560014 0.00749338 -0.0611533 96.4615 33.9286)"><foreignObject x="-1028.91" y="-1028.91" width="2057.82" height="2057.82"><div xmlns="http://www.w3.org/1999/xhtml" style="background:conic-gradient(from 90deg,rgba(70, 136, 255, 1) 0deg,rgba(70, 192, 255, 1) 58.6784deg,rgba(35, 212, 123, 1) 124.761deg,rgba(255, 168, 0, 1) 185.528deg,rgba(255, 37, 99, 1) 222.855deg,rgba(121, 138, 255, 1) 317.785deg,rgba(71, 134, 255, 1) 356.877deg,rgba(70, 136, 255, 1) 360deg);height:100%;width:100%;opacity:1"></div></foreignObject></g></g><path d="M30 0V1.15385H211.154V0V-1.15385H30V0ZM211.154 60V58.8462H30V60V61.1538H211.154V60ZM30 60V58.8462C14.0687 58.8462 1.15385 45.9313 1.15385 30H0H-1.15385C-1.15385 47.2058 12.7942 61.1538 30 61.1538V60ZM241.154 30H240C240 45.9313 227.085 58.8462 211.154 58.8462V60V61.1538C228.36 61.1538 242.308 47.2058 242.308 30H241.154ZM211.154 0V1.15385C227.085 1.15385 240 14.0687 240 30H241.154H242.308C242.308 12.7942 228.36 -1.15385 211.154 -1.15385V0ZM30 0V-1.15385C12.7942 -1.15385 -1.15385 12.7942 -1.15385 30H0H1.15385C1.15385 14.0687 14.0687 1.15385 30 1.15385V0Z" data-figma-gradient-fill="{&#34;type&#34;:&#34;GRADIENT_ANGULAR&#34;,&#34;stops&#34;:[{&#34;color&#34;:{&#34;r&#34;:0.27450981736183167,&#34;g&#34;:0.75294119119644165,&#34;b&#34;:1.0,&#34;a&#34;:1.0},&#34;position&#34;:0.16299553215503693},{&#34;color&#34;:{&#34;r&#34;:0.13943056762218475,&#34;g&#34;:0.83233171701431274,&#34;b&#34;:0.48588111996650696,&#34;a&#34;:1.0},&#34;position&#34;:0.34655869007110596},{&#34;color&#34;:{&#34;r&#34;:1.0,&#34;g&#34;:0.66071432828903198,&#34;b&#34;:0.0,&#34;a&#34;:1.0},&#34;position&#34;:0.51535475254058838},{&#34;color&#34;:{&#34;r&#34;:1.0,&#34;g&#34;:0.146972656250,&#34;b&#34;:0.38866376876831055,&#34;a&#34;:1.0},&#34;position&#34;:0.61904162168502808},{&#34;color&#34;:{&#34;r&#34;:0.47450980544090271,&#34;g&#34;:0.54117649793624878,&#34;b&#34;:1.0,&#34;a&#34;:1.0},&#34;position&#34;:0.88273561000823975},{&#34;color&#34;:{&#34;r&#34;:0.27843138575553894,&#34;g&#34;:0.52549022436141968,&#34;b&#34;:1.0,&#34;a&#34;:1.0},&#34;position&#34;:0.99132454395294189}],&#34;stopsVar&#34;:[{&#34;color&#34;:{&#34;r&#34;:0.27450981736183167,&#34;g&#34;:0.75294119119644165,&#34;b&#34;:1.0,&#34;a&#34;:1.0},&#34;position&#34;:0.16299553215503693},{&#34;color&#34;:{&#34;r&#34;:0.13943056762218475,&#34;g&#34;:0.83233171701431274,&#34;b&#34;:0.48588111996650696,&#34;a&#34;:1.0},&#34;position&#34;:0.34655869007110596},{&#34;color&#34;:{&#34;r&#34;:1.0,&#34;g&#34;:0.66071432828903198,&#34;b&#34;:0.0,&#34;a&#34;:1.0},&#34;position&#34;:0.51535475254058838},{&#34;color&#34;:{&#34;r&#34;:1.0,&#34;g&#34;:0.146972656250,&#34;b&#34;:0.38866376876831055,&#34;a&#34;:1.0},&#34;position&#34;:0.61904162168502808},{&#34;color&#34;:{&#34;r&#34;:0.47450980544090271,&#34;g&#34;:0.54117649793624878,&#34;b&#34;:1.0,&#34;a&#34;:1.0},&#34;position&#34;:0.88273561000823975},{&#34;color&#34;:{&#34;r&#34;:0.27843138575553894,&#34;g&#34;:0.52549022436141968,&#34;b&#34;:1.0,&#34;a&#34;:1.0},&#34;position&#34;:0.99132454395294189}],&#34;transform&#34;:{&#34;m00&#34;:288.60794067382812,&#34;m01&#34;:14.986754417419434,&#34;m02&#34;:-55.335811614990234,&#34;m10&#34;:11.200273513793945,&#34;m11&#34;:-122.30659484863281,&#34;m12&#34;:89.481727600097656},&#34;opacity&#34;:1.0,&#34;blendMode&#34;:&#34;NORMAL&#34;,&#34;visible&#34;:true}" mask="url(#path-1-inside-1_4937_11114)"/>
</g>
<defs>
<clipPath id="paint1_angular_4937_11114_clip_path"><path d="M30 0V1.15385H211.154V0V-1.15385H30V0ZM211.154 60V58.8462H30V60V61.1538H211.154V60ZM30 60V58.8462C14.0687 58.8462 1.15385 45.9313 1.15385 30H0H-1.15385C-1.15385 47.2058 12.7942 61.1538 30 61.1538V60ZM241.154 30H240C240 45.9313 227.085 58.8462 211.154 58.8462V60V61.1538C228.36 61.1538 242.308 47.2058 242.308 30H241.154ZM211.154 0V1.15385C227.085 1.15385 240 14.0687 240 30H241.154H242.308C242.308 12.7942 228.36 -1.15385 211.154 -1.15385V0ZM30 0V-1.15385C12.7942 -1.15385 -1.15385 12.7942 -1.15385 30H0H1.15385C1.15385 14.0687 14.0687 1.15385 30 1.15385V0Z"/></clipPath><linearGradient id="paint0_linear_4937_11114" x1="0" y1="30" x2="241.835" y2="30" gradientUnits="userSpaceOnUse">
<stop stop-color="#0C151B"/>
<stop offset="1" stop-color="#0D151A"/>
</linearGradient>
</defs>
</svg>
