<svg preserveAspectRatio="none" width="100%" height="100%" overflow="visible" style="display: block;" viewBox="0 0 18 18" fill="none" xmlns="http://www.w3.org/2000/svg">
<g id="Frame">
<path id="Vector" d="M9.57143 7.40173H11L8.42857 11V8.60115H7L9.57143 5V7.40173Z" fill="var(--fill-0, #6B6F7A)"/>
<path id="Vector (Stroke)" d="M9.00024 3.20001C6.80688 3.20001 5.02882 4.97807 5.02882 7.17143C5.02882 8.11101 5.35435 8.97293 5.89928 9.65291C5.96244 9.73171 6.05532 9.82754 6.19083 9.96734C6.19781 9.97454 6.2049 9.98186 6.21211 9.9893C6.349 10.1306 6.51417 10.3024 6.66999 10.4927C6.97031 10.8594 7.31453 11.386 7.31453 12.0286V13.2579C7.31453 13.5577 7.55757 13.8008 7.85739 13.8008H10.1431C10.4429 13.8008 10.686 13.5577 10.686 13.2579V12.0286C10.686 11.3862 11.0299 10.8597 11.3301 10.4931C11.4858 10.303 11.6509 10.1312 11.7877 9.99006L11.8097 9.96731C11.9447 9.82808 12.0373 9.73261 12.1003 9.65402C12.6458 8.97382 12.9717 8.11149 12.9717 7.17143C12.9717 4.97807 11.1936 3.20001 9.00024 3.20001ZM3.82882 7.17143C3.82882 4.31533 6.14414 2.00001 9.00024 2.00001C11.8564 2.00001 14.1717 4.31533 14.1717 7.17143C14.1717 8.39423 13.7465 9.51934 13.0365 10.4047C12.936 10.5301 12.8034 10.6666 12.6851 10.7884C12.673 10.8008 12.6611 10.8131 12.6493 10.8253C12.5124 10.9665 12.3791 11.1062 12.2585 11.2534C12.0061 11.5617 11.886 11.8139 11.886 12.0286V13.2579C11.886 14.2205 11.1057 15.0008 10.1431 15.0008H7.85739C6.89484 15.0008 6.11453 14.2205 6.11453 13.2579V12.0286C6.11453 11.814 5.99435 11.5616 5.7416 11.253C5.62089 11.1056 5.48736 10.9658 5.35035 10.8244C5.33869 10.8124 5.32683 10.8001 5.31483 10.7878C5.19636 10.6658 5.06358 10.529 4.96288 10.4033C4.25352 9.51818 3.82882 8.39357 3.82882 7.17143Z" fill="var(--fill-0, #6B6F7A)"/>
<path id="Vector 2120 (Stroke)" d="M6.39999 12.5C6.39999 12.1686 6.66862 11.9 6.99999 11.9H11C11.3314 11.9 11.6 12.1686 11.6 12.5C11.6 12.8314 11.3314 13.1 11 13.1H6.99999C6.66862 13.1 6.39999 12.8314 6.39999 12.5Z" fill="var(--fill-0, #6B6F7A)"/>
</g>
</svg>
