<svg preserveAspectRatio="none" width="100%" height="100%" overflow="visible" style="display: block;" viewBox="0 0 18 18" fill="none" xmlns="http://www.w3.org/2000/svg">
<g id="Frame">
<path id="Vector" d="M7 4C7 4 10.3246 4 12.5009 4C12.7771 4 13 4.22386 13 4.5V11" stroke="var(--stroke-0, #6B6F7A)" stroke-width="1.1" stroke-linecap="round" stroke-linejoin="round"/>
<path id="Vector_2" d="M11 6.5001C11 6.22396 10.7761 6 10.5 6H4.5C4.22386 6 4 6.22396 4 6.5001C4 8.94055 4 11.0594 4 13.4999C4 13.776 4.22386 14 4.5 14C6.5 14 8.5 14 10.5 14C10.7761 14 11 13.776 11 13.4999C11 11.0594 11 8.94055 11 6.5001Z" stroke="var(--stroke-0, #6B6F7A)" stroke-width="1.1" stroke-linejoin="round"/>
</g>
</svg>
