<svg preserveAspectRatio="none" width="100%" height="100%" overflow="visible" style="display: block;" viewBox="0 0 18 18" fill="none" xmlns="http://www.w3.org/2000/svg">
<g id="Frame 2087324868">
<g id="Vector">
<path fill-rule="evenodd" clip-rule="evenodd" d="M9.00102 3.15906C5.77567 3.15906 3.16102 5.77372 3.16102 8.99906C3.16102 12.2244 5.77567 14.8391 9.00102 14.8391C12.2264 14.8391 14.841 12.2244 14.841 8.99906C14.841 5.77372 12.2264 3.15906 9.00102 3.15906ZM2.04102 8.99906C2.04102 5.15516 5.15711 2.03906 9.00102 2.03906C12.8449 2.03906 15.961 5.15516 15.961 8.99906C15.961 12.843 12.8449 15.9591 9.00102 15.9591C5.15711 15.9591 2.04102 12.843 2.04102 8.99906Z" fill="var(--fill-0, #6B6F7A)"/>
<path d="M7.40093 7.29388C7.40093 6.65492 8.11305 6.27381 8.64469 6.62824L11.2025 8.33342C11.6775 8.65008 11.6775 9.34805 11.2025 9.6647L8.64469 11.3699C8.11305 11.7243 7.40093 11.3432 7.40093 10.7042V7.29388Z" fill="var(--fill-0, #6B6F7A)"/>
</g>
</g>
</svg>
