<svg preserveAspectRatio="none" width="100%" height="100%" overflow="visible" style="display: block;" viewBox="0 0 20.4153 20.5051" fill="none" xmlns="http://www.w3.org/2000/svg">
<g id="Group" filter="url(#filter0_di_4922_168778)">
<g id="Group_2" filter="url(#filter1_i_4922_168778)">
<path id="Vector" fill-rule="evenodd" clip-rule="evenodd" d="M16.7795 3.55002C15.1884 1.50428 11.991 -1.52644 5.86894 0.898137C-0.253127 3.32271 -0.935039 12.233 1.55015 15.4456C4.03534 18.6582 8.38594 20.3827 11.4167 19.9281C14.4473 19.4735 15.296 18.3369 16.0386 17.5034C16.7795 16.67 18.1433 15.0031 18.1433 12.718C18.1433 10.4343 18.5222 8.82347 18.5222 8.0961C18.5222 7.36872 18.3707 5.59576 16.7795 3.55002Z" fill="url(#paint0_radial_4922_168778)" fill-opacity="0.6"/>
<path id="Vector_2" fill-rule="evenodd" clip-rule="evenodd" d="M16.7795 3.55002C15.1884 1.50428 11.991 -1.52644 5.86894 0.898137C-0.253127 3.32271 -0.935039 12.233 1.55015 15.4456C4.03534 18.6582 8.38594 20.3827 11.4167 19.9281C14.4473 19.4735 15.296 18.3369 16.0386 17.5034C16.7795 16.67 18.1433 15.0031 18.1433 12.718C18.1433 10.4343 18.5222 8.82347 18.5222 8.0961C18.5222 7.36872 18.3707 5.59576 16.7795 3.55002Z" fill="url(#paint1_radial_4922_168778)" fill-opacity="0.4"/>
<path id="Vector_3" fill-rule="evenodd" clip-rule="evenodd" d="M16.7795 3.55002C15.1884 1.50428 11.991 -1.52644 5.86894 0.898137C-0.253127 3.32271 -0.935039 12.233 1.55015 15.4456C4.03534 18.6582 8.38594 20.3827 11.4167 19.9281C14.4473 19.4735 15.296 18.3369 16.0386 17.5034C16.7795 16.67 18.1433 15.0031 18.1433 12.718C18.1433 10.4343 18.5222 8.82347 18.5222 8.0961C18.5222 7.36872 18.3707 5.59576 16.7795 3.55002Z" fill="url(#paint2_radial_4922_168778)" fill-opacity="0.34"/>
<path id="Vector_4" fill-rule="evenodd" clip-rule="evenodd" d="M16.7795 3.55002C15.1884 1.50428 11.991 -1.52644 5.86894 0.898137C-0.253127 3.32271 -0.935039 12.233 1.55015 15.4456C4.03534 18.6582 8.38594 20.3827 11.4167 19.9281C14.4473 19.4735 15.296 18.3369 16.0386 17.5034C16.7795 16.67 18.1433 15.0031 18.1433 12.718C18.1433 10.4343 18.5222 8.82347 18.5222 8.0961C18.5222 7.36872 18.3707 5.59576 16.7795 3.55002Z" fill="url(#paint3_radial_4922_168778)" fill-opacity="0.2"/>
<path id="Vector_5" fill-rule="evenodd" clip-rule="evenodd" d="M16.7795 3.55002C15.1884 1.50428 11.991 -1.52644 5.86894 0.898137C-0.253127 3.32271 -0.935039 12.233 1.55015 15.4456C4.03534 18.6582 8.38594 20.3827 11.4167 19.9281C14.4473 19.4735 15.296 18.3369 16.0386 17.5034C16.7795 16.67 18.1433 15.0031 18.1433 12.718C18.1433 10.4343 18.5222 8.82347 18.5222 8.0961C18.5222 7.36872 18.3707 5.59576 16.7795 3.55002Z" fill="url(#paint4_radial_4922_168778)" fill-opacity="0.6"/>
</g>
<path id="Vector_6" fill-rule="evenodd" clip-rule="evenodd" d="M16.7801 3.55002C15.189 1.50428 11.9917 -1.52644 5.86957 0.898137C-0.252498 3.32271 -0.93441 12.233 1.55078 15.4456C4.03597 18.6582 8.38657 20.3827 11.4173 19.9281C14.448 19.4735 15.2967 18.3369 16.0392 17.5034C16.7801 16.67 18.144 15.0031 18.144 12.718C18.144 10.4343 18.5228 8.82347 18.5228 8.0961C18.5228 7.36872 18.3713 5.59576 16.7801 3.55002Z" fill="url(#paint5_radial_4922_168778)" fill-opacity="0.6"/>
<path id="Vector_7" fill-rule="evenodd" clip-rule="evenodd" d="M16.7801 3.55002C15.189 1.50428 11.9917 -1.52644 5.86957 0.898137C-0.252498 3.32271 -0.93441 12.233 1.55078 15.4456C4.03597 18.6582 8.38657 20.3827 11.4173 19.9281C14.448 19.4735 15.2967 18.3369 16.0392 17.5034C16.7801 16.67 18.144 15.0031 18.144 12.718C18.144 10.4343 18.5228 8.82347 18.5228 8.0961C18.5228 7.36872 18.3713 5.59576 16.7801 3.55002Z" fill="url(#paint6_radial_4922_168778)" fill-opacity="0.2"/>
<g id="Group_3" filter="url(#filter2_i_4922_168778)">
<path id="Vector_8" fill-rule="evenodd" clip-rule="evenodd" d="M16.3172 5.12162C15.1048 4.43971 12.4499 3.27743 10.0284 3.07588C7.30069 2.84858 5.02765 3.45472 3.36076 5.12162C1.69386 6.78852 0.405801 10.1829 2.52731 14.6684C4.64882 19.1539 8.81606 19.0629 11.2406 18.3811C13.6652 17.6992 17.0748 16.4868 18.8932 13.0772C20.8389 9.42827 17.9583 6.08084 16.3172 5.12162Z" fill="url(#paint7_radial_4922_168778)" fill-opacity="0.8"/>
</g>
<g id="Group_4" filter="url(#filter3_i_4922_168778)">
<path id="Vector_9" fill-rule="evenodd" clip-rule="evenodd" d="M18.9904 12.168C18.9904 10.1313 18.1675 7.99464 17.2765 6.89601C14.7004 3.71375 14.7413 1.06186 12.2 1.06186C8.6329 1.05883 2.19867 1.59224 1.36522 8.25983C0.881823 12.1316 1.6395 22.4724 14.2927 17.7748C17.3674 16.6337 18.9904 14.2046 18.9904 12.168Z" fill="url(#paint8_radial_4922_168778)"/>
</g>
<g id="Group_5" filter="url(#filter4_i_4922_168778)">
<path id="Vector_10" fill-rule="evenodd" clip-rule="evenodd" d="M13.7537 2.059C12.3898 1.68016 11.0715 0.95278 8.82874 1.07401C6.58601 1.19524 2.47938 2.84698 1.63077 7.5143C0.782171 12.1816 2.57485 17.0747 5.41917 18.5006C8.26503 19.9282 14.0264 18.7006 16.6328 16.5186C18.9302 14.594 20.6834 11.8285 20.0425 8.48715C19.3605 4.92606 16.6071 2.85153 13.7537 2.059Z" fill="url(#paint9_radial_4922_168778)" fill-opacity="0.6"/>
<path id="Vector_11" fill-rule="evenodd" clip-rule="evenodd" d="M13.7537 2.059C12.3898 1.68016 11.0715 0.95278 8.82874 1.07401C6.58601 1.19524 2.47938 2.84698 1.63077 7.5143C0.782171 12.1816 2.57485 17.0747 5.41917 18.5006C8.26503 19.9282 14.0264 18.7006 16.6328 16.5186C18.9302 14.594 20.6834 11.8285 20.0425 8.48715C19.3605 4.92606 16.6071 2.85153 13.7537 2.059Z" fill="url(#paint10_radial_4922_168778)" fill-opacity="0.4"/>
<path id="Vector_12" fill-rule="evenodd" clip-rule="evenodd" d="M13.7537 2.059C12.3898 1.68016 11.0715 0.95278 8.82874 1.07401C6.58601 1.19524 2.47938 2.84698 1.63077 7.5143C0.782171 12.1816 2.57485 17.0747 5.41917 18.5006C8.26503 19.9282 14.0264 18.7006 16.6328 16.5186C18.9302 14.594 20.6834 11.8285 20.0425 8.48715C19.3605 4.92606 16.6071 2.85153 13.7537 2.059Z" fill="url(#paint11_radial_4922_168778)" fill-opacity="0.34"/>
<path id="Vector_13" fill-rule="evenodd" clip-rule="evenodd" d="M13.7537 2.059C12.3898 1.68016 11.0715 0.95278 8.82874 1.07401C6.58601 1.19524 2.47938 2.84698 1.63077 7.5143C0.782171 12.1816 2.57485 17.0747 5.41917 18.5006C8.26503 19.9282 14.0264 18.7006 16.6328 16.5186C18.9302 14.594 20.6834 11.8285 20.0425 8.48715C19.3605 4.92606 16.6071 2.85153 13.7537 2.059Z" fill="url(#paint12_radial_4922_168778)" fill-opacity="0.2"/>
<path id="Vector_14" fill-rule="evenodd" clip-rule="evenodd" d="M13.7537 2.059C12.3898 1.68016 11.0715 0.95278 8.82874 1.07401C6.58601 1.19524 2.47938 2.84698 1.63077 7.5143C0.782171 12.1816 2.57485 17.0747 5.41917 18.5006C8.26503 19.9282 14.0264 18.7006 16.6328 16.5186C18.9302 14.594 20.6834 11.8285 20.0425 8.48715C19.3605 4.92606 16.6071 2.85153 13.7537 2.059Z" fill="url(#paint13_radial_4922_168778)" fill-opacity="0.4"/>
<path id="Vector_15" fill-rule="evenodd" clip-rule="evenodd" d="M13.7537 2.059C12.3898 1.68016 11.0715 0.95278 8.82874 1.07401C6.58601 1.19524 2.47938 2.84698 1.63077 7.5143C0.782171 12.1816 2.57485 17.0747 5.41917 18.5006C8.26503 19.9282 14.0264 18.7006 16.6328 16.5186C18.9302 14.594 20.6834 11.8285 20.0425 8.48715C19.3605 4.92606 16.6071 2.85153 13.7537 2.059Z" fill="url(#paint14_radial_4922_168778)" fill-opacity="0.8"/>
<path id="Vector_16" fill-rule="evenodd" clip-rule="evenodd" d="M13.7537 2.059C12.3898 1.68016 11.0715 0.95278 8.82874 1.07401C6.58601 1.19524 2.47938 2.84698 1.63077 7.5143C0.782171 12.1816 2.57485 17.0747 5.41917 18.5006C8.26503 19.9282 14.0264 18.7006 16.6328 16.5186C18.9302 14.594 20.6834 11.8285 20.0425 8.48715C19.3605 4.92606 16.6071 2.85153 13.7537 2.059Z" fill="url(#paint15_radial_4922_168778)" fill-opacity="0.4"/>
<path id="Vector_17" fill-rule="evenodd" clip-rule="evenodd" d="M13.7537 2.059C12.3898 1.68016 11.0715 0.95278 8.82874 1.07401C6.58601 1.19524 2.47938 2.84698 1.63077 7.5143C0.782171 12.1816 2.57485 17.0747 5.41917 18.5006C8.26503 19.9282 14.0264 18.7006 16.6328 16.5186C18.9302 14.594 20.6834 11.8285 20.0425 8.48715C19.3605 4.92606 16.6071 2.85153 13.7537 2.059Z" fill="url(#paint16_radial_4922_168778)"/>
</g>
<g id="Group_6" filter="url(#filter5_i_4922_168778)">
<path id="Vector_18" fill-rule="evenodd" clip-rule="evenodd" d="M13.7537 2.059C12.3898 1.68016 11.0715 0.95278 8.82874 1.07401C6.58601 1.19524 2.47938 2.84698 1.63077 7.5143C0.782171 12.1816 2.57485 17.0747 5.41917 18.5006C8.26503 19.9282 14.0264 18.7006 16.6328 16.5186C18.9302 14.594 20.6834 11.8285 20.0425 8.48715C19.3605 4.92606 16.6071 2.85153 13.7537 2.059Z" fill="var(--fill-0, white)" fill-opacity="0.01"/>
</g>
<path id="Vector_19" d="M8.82806 1.07303C6.58533 1.19427 2.4787 2.846 1.6301 7.51332C0.781499 12.1806 2.57418 17.0737 5.4185 18.4996C8.26435 19.9272 14.0257 18.6997 16.6321 16.5176C18.9295 14.593 20.6827 11.8276 20.0418 8.48618C19.3599 4.92508 16.6064 2.85055 13.753 2.05802C12.3892 1.67918 11.0708 0.951804 8.82806 1.07303Z" stroke="url(#paint17_linear_4922_168778)" stroke-opacity="0.6" stroke-width="0.0757681"/>
<g id="Group_7" filter="url(#filter6_i_4922_168778)">
<path id="Vector_20" fill-rule="evenodd" clip-rule="evenodd" d="M13.7537 2.059C12.3898 1.68016 11.0715 0.95278 8.82874 1.07401C6.58601 1.19524 2.47938 2.84698 1.63077 7.5143C0.782171 12.1816 2.57485 17.0747 5.41917 18.5006C8.26503 19.9282 14.0264 18.7006 16.6328 16.5186C18.9302 14.594 20.6834 11.8285 20.0425 8.48715C19.3605 4.92606 16.6071 2.85153 13.7537 2.059Z" fill="var(--fill-0, white)" fill-opacity="0.01"/>
</g>
<path id="Vector_21" d="M8.82806 1.07303C6.58533 1.19427 2.4787 2.846 1.6301 7.51332C0.781499 12.1806 2.57418 17.0737 5.4185 18.4996C8.26435 19.9272 14.0257 18.6997 16.6321 16.5176C18.9295 14.593 20.6827 11.8276 20.0418 8.48618C19.3599 4.92508 16.6064 2.85055 13.753 2.05802C12.3892 1.67918 11.0708 0.951804 8.82806 1.07303Z" stroke="url(#paint18_linear_4922_168778)" stroke-opacity="0.6" stroke-width="0.0757681"/>
<g id="Group_8" opacity="0.52">
<path id="Vector_22" d="M9.97476 17.5799C14.3686 17.5799 17.9304 14.018 17.9304 9.62427C17.9304 5.23049 14.3686 1.66862 9.97476 1.66862C5.58097 1.66862 2.01911 5.23049 2.01911 9.62427C2.01911 14.018 5.58097 17.5799 9.97476 17.5799Z" fill="url(#paint19_radial_4922_168778)"/>
</g>
</g>
<defs>
<filter id="filter0_di_4922_168778" x="-0.101025" y="-0.303073" width="20.5163" height="20.8082" filterUnits="userSpaceOnUse" color-interpolation-filters="sRGB">
<feFlood flood-opacity="0" result="BackgroundImageFix"/>
<feColorMatrix in="SourceAlpha" type="matrix" values="0 0 0 0 0 0 0 0 0 0 0 0 0 0 0 0 0 0 127 0" result="hardAlpha"/>
<feOffset dy="0.303073"/>
<feGaussianBlur stdDeviation="0.101024"/>
<feComposite in2="hardAlpha" operator="out"/>
<feColorMatrix type="matrix" values="0 0 0 0 1 0 0 0 0 0.27451 0 0 0 0 0 0 0 0 0.25 0"/>
<feBlend mode="normal" in2="BackgroundImageFix" result="effect1_dropShadow_4922_168778"/>
<feBlend mode="normal" in="SourceGraphic" in2="effect1_dropShadow_4922_168778" result="shape"/>
<feColorMatrix in="SourceAlpha" type="matrix" values="0 0 0 0 0 0 0 0 0 0 0 0 0 0 0 0 0 0 127 0" result="hardAlpha"/>
<feOffset dx="-0.303073" dy="-0.303073"/>
<feGaussianBlur stdDeviation="0.202048"/>
<feComposite in2="hardAlpha" operator="arithmetic" k2="-1" k3="1"/>
<feColorMatrix type="matrix" values="0 0 0 0 0 0 0 0 0 0.24314 0 0 0 0 1 0 0 0 0.53 0"/>
<feBlend mode="normal" in2="shape" result="effect2_innerShadow_4922_168778"/>
</filter>
<filter id="filter1_i_4922_168778" x="0.202048" y="3.72337e-08" width="18.3201" height="20" filterUnits="userSpaceOnUse" color-interpolation-filters="sRGB">
<feFlood flood-opacity="0" result="BackgroundImageFix"/>
<feBlend mode="normal" in="SourceGraphic" in2="BackgroundImageFix" result="shape"/>
<feColorMatrix in="SourceAlpha" type="matrix" values="0 0 0 0 0 0 0 0 0 0 0 0 0 0 0 0 0 0 127 0" result="hardAlpha"/>
<feOffset/>
<feGaussianBlur stdDeviation="0.101024"/>
<feComposite in2="hardAlpha" operator="arithmetic" k2="-1" k3="1"/>
<feColorMatrix type="matrix" values="0 0 0 0 1 0 0 0 0 1 0 0 0 0 1 0 0 0 0.6 0"/>
<feBlend mode="normal" in2="shape" result="effect1_innerShadow_4922_168778"/>
</filter>
<filter id="filter2_i_4922_168778" x="1.41917" y="3.02995" width="18.1249" height="15.6981" filterUnits="userSpaceOnUse" color-interpolation-filters="sRGB">
<feFlood flood-opacity="0" result="BackgroundImageFix"/>
<feBlend mode="normal" in="SourceGraphic" in2="BackgroundImageFix" result="shape"/>
<feColorMatrix in="SourceAlpha" type="matrix" values="0 0 0 0 0 0 0 0 0 0 0 0 0 0 0 0 0 0 127 0" result="hardAlpha"/>
<feOffset/>
<feGaussianBlur stdDeviation="0.050512"/>
<feComposite in2="hardAlpha" operator="arithmetic" k2="-1" k3="1"/>
<feColorMatrix type="matrix" values="0 0 0 0 1 0 0 0 0 1 0 0 0 0 1 0 0 0 0.6 0"/>
<feBlend mode="normal" in2="shape" result="effect1_innerShadow_4922_168778"/>
</filter>
<filter id="filter3_i_4922_168778" x="1.26292" y="1.06185" width="17.7275" height="18.3175" filterUnits="userSpaceOnUse" color-interpolation-filters="sRGB">
<feFlood flood-opacity="0" result="BackgroundImageFix"/>
<feBlend mode="normal" in="SourceGraphic" in2="BackgroundImageFix" result="shape"/>
<feColorMatrix in="SourceAlpha" type="matrix" values="0 0 0 0 0 0 0 0 0 0 0 0 0 0 0 0 0 0 127 0" result="hardAlpha"/>
<feOffset dy="0.606144"/>
<feGaussianBlur stdDeviation="0.202048"/>
<feComposite in2="hardAlpha" operator="arithmetic" k2="-1" k3="1"/>
<feColorMatrix type="matrix" values="0 0 0 0 1 0 0 0 0 1 0 0 0 0 1 0 0 0 0.039 0"/>
<feBlend mode="normal" in2="shape" result="effect1_innerShadow_4922_168778"/>
</filter>
<filter id="filter4_i_4922_168778" x="1.41917" y="1.06055" width="18.7568" height="18.054" filterUnits="userSpaceOnUse" color-interpolation-filters="sRGB">
<feFlood flood-opacity="0" result="BackgroundImageFix"/>
<feBlend mode="normal" in="SourceGraphic" in2="BackgroundImageFix" result="shape"/>
<feColorMatrix in="SourceAlpha" type="matrix" values="0 0 0 0 0 0 0 0 0 0 0 0 0 0 0 0 0 0 127 0" result="hardAlpha"/>
<feOffset/>
<feGaussianBlur stdDeviation="0.101024"/>
<feComposite in2="hardAlpha" operator="arithmetic" k2="-1" k3="1"/>
<feColorMatrix type="matrix" values="0 0 0 0 1 0 0 0 0 1 0 0 0 0 1 0 0 0 0.6 0"/>
<feBlend mode="normal" in2="shape" result="effect1_innerShadow_4922_168778"/>
</filter>
<filter id="filter5_i_4922_168778" x="1.41917" y="1.06055" width="18.7568" height="18.054" filterUnits="userSpaceOnUse" color-interpolation-filters="sRGB">
<feFlood flood-opacity="0" result="BackgroundImageFix"/>
<feBlend mode="normal" in="SourceGraphic" in2="BackgroundImageFix" result="shape"/>
<feColorMatrix in="SourceAlpha" type="matrix" values="0 0 0 0 0 0 0 0 0 0 0 0 0 0 0 0 0 0 127 0" result="hardAlpha"/>
<feOffset/>
<feGaussianBlur stdDeviation="0.101024"/>
<feComposite in2="hardAlpha" operator="arithmetic" k2="-1" k3="1"/>
<feColorMatrix type="matrix" values="0 0 0 0 1 0 0 0 0 1 0 0 0 0 1 0 0 0 0.6 0"/>
<feBlend mode="normal" in2="shape" result="effect1_innerShadow_4922_168778"/>
</filter>
<filter id="filter6_i_4922_168778" x="1.41917" y="1.06055" width="18.7568" height="18.054" filterUnits="userSpaceOnUse" color-interpolation-filters="sRGB">
<feFlood flood-opacity="0" result="BackgroundImageFix"/>
<feBlend mode="normal" in="SourceGraphic" in2="BackgroundImageFix" result="shape"/>
<feColorMatrix in="SourceAlpha" type="matrix" values="0 0 0 0 0 0 0 0 0 0 0 0 0 0 0 0 0 0 127 0" result="hardAlpha"/>
<feOffset/>
<feGaussianBlur stdDeviation="0.050512"/>
<feComposite in2="hardAlpha" operator="arithmetic" k2="-1" k3="1"/>
<feColorMatrix type="matrix" values="0 0 0 0 1 0 0 0 0 1 0 0 0 0 1 0 0 0 0.6 0"/>
<feBlend mode="normal" in2="shape" result="effect1_innerShadow_4922_168778"/>
</filter>
<radialGradient id="paint0_radial_4922_168778" cx="0" cy="0" r="1" gradientUnits="userSpaceOnUse" gradientTransform="translate(11.619 0.00104247) rotate(96.4358) scale(20.1258 18.0042)">
<stop offset="0.018757" stop-color="#4F7AFF"/>
<stop offset="0.510566" stop-opacity="0"/>
</radialGradient>
<radialGradient id="paint1_radial_4922_168778" cx="0" cy="0" r="1" gradientUnits="userSpaceOnUse" gradientTransform="translate(2.01901 3.53032) rotate(45.9956) scale(13.5275 20.0847)">
<stop offset="0.007027" stop-color="#B6B8FF"/>
<stop offset="1" stop-opacity="0"/>
</radialGradient>
<radialGradient id="paint2_radial_4922_168778" cx="0" cy="0" r="1" gradientUnits="userSpaceOnUse" gradientTransform="translate(8.15864 10.0005) rotate(31.8638) scale(12.2035 11.1791)">
<stop offset="0.313545" stop-opacity="0"/>
<stop offset="1" stop-color="#8879FD"/>
</radialGradient>
<radialGradient id="paint3_radial_4922_168778" cx="0" cy="0" r="1" gradientUnits="userSpaceOnUse" gradientTransform="translate(15.2577 2.94206) rotate(108.625) scale(13.6871 12.5381)">
<stop offset="0.000595" stop-color="#1A00FF"/>
<stop offset="1" stop-opacity="0"/>
</radialGradient>
<radialGradient id="paint4_radial_4922_168778" cx="0" cy="0" r="1" gradientUnits="userSpaceOnUse" gradientTransform="translate(13.7655 3.41061) rotate(121.872) scale(17.2194 12.9122)">
<stop offset="0.928993" stop-color="#FF7200" stop-opacity="0"/>
<stop offset="1" stop-color="#FF6A00"/>
</radialGradient>
<radialGradient id="paint5_radial_4922_168778" cx="0" cy="0" r="1" gradientUnits="userSpaceOnUse" gradientTransform="translate(10.1292 10.4754) rotate(-113.842) scale(10.8717 10.3084)">
<stop offset="0.90616" stop-color="white" stop-opacity="0"/>
<stop offset="1" stop-color="white"/>
</radialGradient>
<radialGradient id="paint6_radial_4922_168778" cx="0" cy="0" r="1" gradientUnits="userSpaceOnUse" gradientTransform="translate(5.12855 2.19832) rotate(52.2243) scale(15.3374 14.0498)">
<stop stop-color="#D3CFFF"/>
<stop offset="0.68543" stop-color="#ADBEFF" stop-opacity="0"/>
</radialGradient>
<radialGradient id="paint7_radial_4922_168778" cx="0" cy="0" r="1" gradientUnits="userSpaceOnUse" gradientTransform="translate(8.76923 12.653) rotate(-66.2052) scale(10.5165 11.9116)">
<stop offset="0.663743" stop-color="#292929" stop-opacity="0.039216"/>
<stop offset="0.999532" stop-color="#6772FF" stop-opacity="0.384314"/>
</radialGradient>
<radialGradient id="paint8_radial_4922_168778" cx="0" cy="0" r="1" gradientUnits="userSpaceOnUse" gradientTransform="translate(6.18877 10.0192) rotate(6.11652) scale(12.8751 10.5492)">
<stop offset="0.900111" stop-color="#FF9E00" stop-opacity="0"/>
<stop offset="1" stop-color="#696FFE" stop-opacity="0.219608"/>
</radialGradient>
<radialGradient id="paint9_radial_4922_168778" cx="0" cy="0" r="1" gradientUnits="userSpaceOnUse" gradientTransform="translate(13.1083 1.06189) rotate(97.2903) scale(18.2007 18.4661)">
<stop offset="0.018757" stop-color="#4F7AFF"/>
<stop offset="0.506049" stop-opacity="0"/>
</radialGradient>
<radialGradient id="paint10_radial_4922_168778" cx="0" cy="0" r="1" gradientUnits="userSpaceOnUse" gradientTransform="translate(3.27964 4.24779) rotate(35.6691) scale(12.8788 21.6866)">
<stop offset="0.007027" stop-color="#AAA3FF"/>
<stop offset="0.994528" stop-opacity="0.011765"/>
</radialGradient>
<radialGradient id="paint11_radial_4922_168778" cx="0" cy="0" r="1" gradientUnits="userSpaceOnUse" gradientTransform="translate(6.64828 10.0887) rotate(24.3603) scale(12.1377 12.6102)">
<stop offset="0.306882" stop-opacity="0"/>
<stop offset="1" stop-color="#8879FD"/>
</radialGradient>
<radialGradient id="paint12_radial_4922_168778" cx="0" cy="0" r="1" gradientUnits="userSpaceOnUse" gradientTransform="translate(16.8335 3.71679) rotate(133.04) scale(13.3689 13.8895)">
<stop offset="0.000595" stop-color="#1A00FF"/>
<stop offset="1" stop-opacity="0"/>
</radialGradient>
<radialGradient id="paint13_radial_4922_168778" cx="0" cy="0" r="1" gradientUnits="userSpaceOnUse" gradientTransform="translate(10.7986 10.0887) rotate(-176.033) scale(10.0084 10.2809)">
<stop offset="0.008065" stop-color="white" stop-opacity="0"/>
<stop offset="0.9451" stop-color="white" stop-opacity="0"/>
<stop offset="0.984962" stop-color="white"/>
</radialGradient>
<radialGradient id="paint14_radial_4922_168778" cx="0" cy="0" r="1" gradientUnits="userSpaceOnUse" gradientTransform="translate(5.58768 16.7459) rotate(-52.2147) scale(17.065 17.7295)">
<stop offset="0.897895" stop-color="#0042FF" stop-opacity="0"/>
<stop offset="1" stop-color="#0042FF" stop-opacity="0.627451"/>
</radialGradient>
<radialGradient id="paint15_radial_4922_168778" cx="0" cy="0" r="1" gradientUnits="userSpaceOnUse" gradientTransform="translate(14.0735 2.34995) rotate(117.516) scale(18.368 12.11)">
<stop offset="0.924347" stop-color="#FF7200" stop-opacity="0"/>
<stop offset="0.967108" stop-color="#FF9500"/>
<stop offset="0.997557" stop-color="#FF9500"/>
</radialGradient>
<radialGradient id="paint16_radial_4922_168778" cx="0" cy="0" r="1" gradientUnits="userSpaceOnUse" gradientTransform="translate(5.58768 18.4128) rotate(-59.2529) scale(17.1913 17.501)">
<stop stop-color="#FFB000" stop-opacity="0.654902"/>
<stop offset="0.237634" stop-color="#C03500" stop-opacity="0.494118"/>
<stop offset="0.816276" stop-opacity="0"/>
</radialGradient>
<linearGradient id="paint17_linear_4922_168778" x1="1.41969" y1="12.6534" x2="18.316" y2="5.98584" gradientUnits="userSpaceOnUse">
<stop stop-color="white"/>
<stop offset="1" stop-color="white" stop-opacity="0"/>
</linearGradient>
<linearGradient id="paint18_linear_4922_168778" x1="1.41969" y1="12.6534" x2="18.316" y2="5.98584" gradientUnits="userSpaceOnUse">
<stop stop-color="white"/>
<stop offset="0.997132" stop-color="#47CCFF" stop-opacity="0.533333"/>
</linearGradient>
<radialGradient id="paint19_radial_4922_168778" cx="0" cy="0" r="1" gradientUnits="userSpaceOnUse" gradientTransform="translate(16.1877 14.2461) rotate(-145.643) scale(16.2452 11.9351)">
<stop offset="0.929813" stop-color="white" stop-opacity="0"/>
<stop offset="0.999947" stop-color="white"/>
</radialGradient>
</defs>
</svg>
