<svg preserveAspectRatio="none" width="100%" height="100%" overflow="visible" style="display: block;" viewBox="0 0 48.4416 14.1176" fill="none" xmlns="http://www.w3.org/2000/svg">
<g id="Group 2090053801">
<path id="Vector" d="M17.2284 8.57387C16.7291 8.90094 16.2987 9.22812 15.765 9.38304V7.50644C17.4866 6.11189 17.9343 4.90673 18.0203 3.95982H16.092C16.0748 3.46054 16.092 2.96126 16.092 2.46198C16.3159 2.41032 19.8109 2.39311 20.1035 2.46198V3.54662C20.1035 3.78765 20.1208 4.01147 20.0519 4.2525C19.9142 4.71734 19.7421 5.1822 19.5182 5.61261C19.4665 5.71592 19.3977 5.81921 19.346 5.93973C19.4665 6.18076 19.7248 6.40457 20.1552 6.69725V8.55665L19.2427 8.07459V14.0832H17.2284V8.57387ZM18.8123 0.0172136C19.1395 0.619788 19.3804 1.2568 19.587 1.94547H17.3661C17.1423 1.30846 16.9357 0.671442 16.7118 0.0172136H18.8123ZM21.7735 8.45335C21.7219 8.26397 21.6874 8.10901 21.6358 7.93685H23.8395C23.9084 8.0918 23.9601 8.26397 24.029 8.43613H25.8883C25.9572 8.24675 26.0088 8.0918 26.0778 7.93685H28.2987C28.2471 8.10901 28.1954 8.26397 28.1264 8.45335H29.5728V9.91679H20.3445V8.45335H21.7735ZM20.534 0.430414H23.8912L23.9257 0H26.0606C26.0606 0.137734 26.0778 0.275467 26.0778 0.447628C27.1796 0.395975 28.2815 0.499281 29.4005 0.395974V1.80774C29.1767 1.82495 28.9529 1.85939 28.7463 1.85939H26.0778V2.34146H29.1767V3.71878H20.7234V2.34146H23.9084V1.85939H20.534V0.430414ZM20.7578 10.3471H29.2111V10.5538C29.2111 11.2253 29.2111 11.8795 29.1939 12.551C29.1939 12.9813 29.0562 13.3601 28.7463 13.67C28.5053 13.9282 28.2126 14.066 27.8682 14.0832C27.5068 14.1176 27.1451 14.1176 26.7837 14.1176H20.7578V10.3471ZM29.039 4.16642C29.0562 4.18363 29.0734 4.20085 29.0734 4.21806C29.0562 4.95838 29.0907 5.69869 29.039 6.43901C29.0046 7.02437 28.4364 7.60973 27.7305 7.60973H20.8783C20.8094 7.40313 20.775 4.63126 20.8439 4.16642H29.039ZM22.7205 12.6887C22.7721 12.7059 22.8066 12.7059 22.841 12.7059H26.663C26.7319 12.7059 26.8009 12.6887 26.8869 12.6715C27.0935 12.637 27.1968 12.4992 27.2312 12.2926C27.2484 12.1205 27.2484 11.9311 27.2484 11.7417H22.7205V12.6887ZM22.8066 6.30128C22.8582 6.30128 22.8926 6.31849 22.9271 6.31849H26.6286C26.9558 6.30128 27.1107 6.1291 27.1279 5.802V5.49209H22.8066V6.30128Z" fill="var(--fill-0, white)"/>
<path id="Vector_2" d="M14.0488 13.9624C11.0875 13.0498 8.59107 11.5692 7.00717 8.76289C6.28408 10.1402 5.28556 11.2421 4.04594 12.1202C2.82353 12.981 1.4634 13.5664 0 13.9452V11.7759C2.61696 10.8461 4.61411 9.245 5.64705 6.55921H0.241113V4.9925H5.87095V1.77299H0.602599V0.154622H13.3257V1.75577H8.04023V4.9925H12.4993C13.429 4.9925 13.5495 4.97528 13.8078 4.88919V6.43869C13.8078 6.43869 13.6701 6.55921 13.0158 6.55921H8.36729C8.48779 6.98962 8.65992 7.36838 8.86661 7.72994C9.8307 9.46877 11.3113 10.6223 13.0847 11.3971C13.3257 11.5176 14.0488 11.6897 14.0488 11.6897V13.5147C14.0488 13.6524 14.0316 13.7901 14.0488 13.9624Z" fill="var(--fill-0, white)"/>
<path id="Vector_3" d="M48.4416 0.384115V13.7355H46.2817V0.384115H48.4416Z" fill="var(--fill-0, white)"/>
<path id="Vector_4" d="M41.0983 10.1032H36.1242L34.9953 13.7355H32.8027L37.3678 0.384115H39.9858L44.5507 13.7355H42.2272L41.0983 10.1032ZM40.5257 8.2706L38.6113 2.16758L36.7133 8.2706H40.5257Z" fill="var(--fill-0, white)"/>
</g>
</svg>
