<svg preserveAspectRatio="none" width="100%" height="100%" overflow="visible" style="display: block;" viewBox="0 0 24 24" fill="none" xmlns="http://www.w3.org/2000/svg">
<g id="Frame">
<g id="Union">
<path d="M16.4268 2.9461C16.7865 2.50461 17.4364 2.43895 17.8779 2.79864C18.3191 3.15835 18.3857 3.80739 18.0264 4.24884L18.0186 4.2586L18.0166 4.26056L17.8799 4.42853L17.7217 4.62189L17.7148 4.63067L17.4404 4.96759L16.8369 5.7088L16.8115 5.74005L15.6846 7.12286L13.1348 10.2518L16.2051 14.0203C16.5977 13.8808 17.0204 13.8045 17.4609 13.8045C19.532 13.8045 21.2108 15.4835 21.2109 17.5545C21.2109 19.6256 19.532 21.3045 17.4609 21.3045C15.3899 21.3045 13.7109 19.6256 13.7109 17.5545C13.711 16.6733 14.0156 15.8635 14.5244 15.2234L11.8047 11.8846L9.28516 14.9774C9.92148 15.6493 10.3125 16.556 10.3125 17.5545C10.3125 19.6256 8.63358 21.3045 6.5625 21.3045C4.49142 21.3045 2.8125 19.6256 2.8125 17.5545C2.8126 15.4835 4.49148 13.8045 6.5625 13.8045C6.88125 13.8045 7.19085 13.8439 7.48633 13.9188L10.4746 10.2518L7.92578 7.12286L6.79883 5.74005L6.77344 5.7088L6.16992 4.96759L5.89551 4.63067L5.8877 4.62189C5.84372 4.56787 5.80219 4.51653 5.73047 4.42853L5.59375 4.26056L5.5918 4.2586L5.58398 4.24884C5.22459 3.80737 5.29119 3.15835 5.73242 2.79864C6.17396 2.43893 6.82387 2.50455 7.18359 2.9461L7.33008 3.12579L7.45898 3.28399L7.46582 3.29278L7.48047 3.31036L7.4873 3.31915L7.76855 3.66485L9.52441 5.82013L11.8047 8.61896L14.085 5.82013L15.8418 3.66485L16.123 3.31915L16.1299 3.31036L16.1445 3.29278L16.1514 3.28399L16.2803 3.12579L16.4268 2.9461ZM6.5625 15.867C5.63057 15.867 4.8751 16.6226 4.875 17.5545C4.875 18.4865 5.63051 19.242 6.5625 19.242C7.49449 19.242 8.25 18.4865 8.25 17.5545C8.2499 16.6226 7.49443 15.867 6.5625 15.867ZM17.4609 15.867C16.529 15.867 15.7735 16.6226 15.7734 17.5545C15.7734 18.4865 16.5289 19.242 17.4609 19.242C18.3929 19.242 19.1484 18.4865 19.1484 17.5545C19.1483 16.6226 18.3929 15.867 17.4609 15.867Z" fill="var(--fill-0, #666666)"/>
<path d="M16.4268 2.9461L16.6205 3.10407L16.6206 3.10403L16.4268 2.9461ZM17.8779 2.79864L18.0359 2.60489L18.0358 2.60482L17.8779 2.79864ZM18.0264 4.24884L17.8325 4.09101L17.8312 4.09266L18.0264 4.24884ZM18.0186 4.2586L18.1953 4.43538L18.2051 4.42559L18.2138 4.41478L18.0186 4.2586ZM18.0166 4.26056L17.8398 4.08378L17.8308 4.09282L17.8227 4.10274L18.0166 4.26056ZM17.8799 4.42853L18.0734 4.58684L18.0738 4.58634L17.8799 4.42853ZM17.7217 4.62189L17.5281 4.46353L17.5243 4.4684L17.7217 4.62189ZM17.7148 4.63067L17.9087 4.78859L17.9122 4.78416L17.7148 4.63067ZM17.4404 4.96759L17.2466 4.80971L17.2466 4.80974L17.4404 4.96759ZM16.8369 5.7088L16.643 5.55095L16.6429 5.55115L16.8369 5.7088ZM16.8115 5.74005L17.0053 5.89799L17.0056 5.8977L16.8115 5.74005ZM15.6846 7.12286L15.4908 6.96493L15.4908 6.96493L15.6846 7.12286ZM13.1348 10.2518L12.941 10.0938L12.8123 10.2517L12.9409 10.4097L13.1348 10.2518ZM16.2051 14.0203L16.0113 14.1782L16.1226 14.3149L16.2888 14.2559L16.2051 14.0203ZM21.2109 17.5545H21.4609V17.5545L21.2109 17.5545ZM13.7109 17.5545L13.4609 17.5545V17.5545H13.7109ZM14.5244 15.2234L14.7201 15.379L14.8453 15.2215L14.7182 15.0656L14.5244 15.2234ZM11.8047 11.8846L11.9985 11.7267L11.8047 11.4887L11.6109 11.7267L11.8047 11.8846ZM9.28516 14.9774L9.09133 14.8195L8.9526 14.9898L9.10363 15.1493L9.28516 14.9774ZM10.3125 17.5545H10.5625V17.5545L10.3125 17.5545ZM2.8125 17.5545L2.5625 17.5545V17.5545H2.8125ZM7.48633 13.9188L7.42494 14.1611L7.57944 14.2002L7.68013 14.0767L7.48633 13.9188ZM10.4746 10.2518L10.6684 10.4097L10.7971 10.2518L10.6684 10.0939L10.4746 10.2518ZM7.92578 7.12286L8.11961 6.96497L8.11958 6.96493L7.92578 7.12286ZM6.79883 5.74005L6.6048 5.8977L6.60503 5.89799L6.79883 5.74005ZM6.77344 5.7088L6.96747 5.55115L6.9673 5.55095L6.77344 5.7088ZM6.16992 4.96759L6.36379 4.80974L6.36376 4.80971L6.16992 4.96759ZM5.89551 4.63067L6.08953 4.47265L6.08236 4.46458L5.89551 4.63067ZM5.8877 4.62189L5.69364 4.77987L5.70084 4.78798L5.8877 4.62189ZM5.73047 4.42853L5.53658 4.58634L5.53667 4.58645L5.73047 4.42853ZM5.59375 4.26056L5.78764 4.10274L5.77957 4.09282L5.77053 4.08378L5.59375 4.26056ZM5.5918 4.2586L5.39658 4.41478L5.40523 4.42559L5.41502 4.43538L5.5918 4.2586ZM5.58398 4.24884L5.77921 4.09266L5.77786 4.09101L5.58398 4.24884ZM5.73242 2.79864L5.57452 2.60482L5.57445 2.60487L5.73242 2.79864ZM7.18359 2.9461L6.98977 3.10401L6.98982 3.10407L7.18359 2.9461ZM7.33008 3.12579L7.52389 2.96787L7.52385 2.96783L7.33008 3.12579ZM7.45898 3.28399L7.65637 3.13047L7.65279 3.12608L7.45898 3.28399ZM7.46582 3.29278L7.26837 3.44636L7.27377 3.45283L7.46582 3.29278ZM7.48047 3.31036L7.67792 3.15679L7.67252 3.15032L7.48047 3.31036ZM7.4873 3.31915L7.28992 3.47267L7.29338 3.47692L7.4873 3.31915ZM7.76855 3.66485L7.57463 3.82263L7.57473 3.82276L7.76855 3.66485ZM9.52441 5.82013L9.33059 5.97803L9.3306 5.97804L9.52441 5.82013ZM11.8047 8.61896L11.6109 8.77686L11.8047 9.01476L11.9985 8.77686L11.8047 8.61896ZM14.085 5.82013L13.8912 5.66217L13.8911 5.66222L14.085 5.82013ZM15.8418 3.66485L16.0356 3.82281L16.0357 3.82263L15.8418 3.66485ZM16.123 3.31915L16.317 3.47696L16.3204 3.47264L16.123 3.31915ZM16.1299 3.31036L15.9377 3.15022L15.9325 3.15688L16.1299 3.31036ZM16.1445 3.29278L16.3367 3.45292L16.3419 3.44627L16.1445 3.29278ZM16.1514 3.28399L15.9575 3.12604L15.954 3.13051L16.1514 3.28399ZM16.2803 3.12579L16.0865 2.96783L16.0865 2.96787L16.2803 3.12579ZM4.875 17.5545L4.625 17.5545V17.5545H4.875ZM8.25 17.5545H8.5V17.5545L8.25 17.5545ZM15.7734 17.5545L15.5234 17.5545V17.5545H15.7734ZM19.1484 17.5545H19.3984V17.5545L19.1484 17.5545ZM16.4268 2.9461L16.6206 3.10403C16.8929 2.76979 17.3853 2.71978 17.72 2.99247L17.8779 2.79864L18.0358 2.60482C17.4875 2.15811 16.6801 2.23944 16.233 2.78818L16.4268 2.9461ZM17.8779 2.79864L17.7199 2.9924C18.0543 3.265 18.1046 3.75671 17.8325 4.09102L18.0264 4.24884L18.2203 4.40666C18.6668 3.85808 18.5839 3.0517 18.0359 2.60489L17.8779 2.79864ZM18.0264 4.24884L17.8312 4.09266L17.8233 4.10243L18.0186 4.2586L18.2138 4.41478L18.2216 4.40501L18.0264 4.24884ZM18.0186 4.2586L17.8418 4.08183L17.8398 4.08378L18.0166 4.26056L18.1934 4.43733L18.1953 4.43538L18.0186 4.2586ZM18.0166 4.26056L17.8227 4.10274L17.686 4.27071L17.8799 4.42853L18.0738 4.58634L18.2105 4.41838L18.0166 4.26056ZM17.8799 4.42853L17.6864 4.27022L17.5282 4.46358L17.7217 4.62189L17.9152 4.78019L18.0734 4.58684L17.8799 4.42853ZM17.7217 4.62189L17.5243 4.4684L17.5175 4.47719L17.7148 4.63067L17.9122 4.78416L17.919 4.77537L17.7217 4.62189ZM17.7148 4.63067L17.521 4.47279L17.2466 4.80971L17.4404 4.96759L17.6343 5.12547L17.9087 4.78856L17.7148 4.63067ZM17.4404 4.96759L17.2466 4.80974L16.6431 5.55095L16.8369 5.7088L17.0308 5.86665L17.6343 5.12544L17.4404 4.96759ZM16.8369 5.7088L16.6429 5.55115L16.6175 5.5824L16.8115 5.74005L17.0056 5.8977L17.0309 5.86645L16.8369 5.7088ZM16.8115 5.74005L16.6177 5.58211L15.4908 6.96493L15.6846 7.12286L15.8784 7.2808L17.0053 5.89799L16.8115 5.74005ZM15.6846 7.12286L15.4908 6.96493L12.941 10.0938L13.1348 10.2518L13.3286 10.4097L15.8784 7.28079L15.6846 7.12286ZM13.1348 10.2518L12.9409 10.4097L16.0113 14.1782L16.2051 14.0203L16.3989 13.8624L13.3286 10.0939L13.1348 10.2518ZM16.2051 14.0203L16.2888 14.2559C16.6551 14.1257 17.0495 14.0545 17.4609 14.0545V13.8045V13.5545C16.9914 13.5545 16.5404 13.6359 16.1214 13.7848L16.2051 14.0203ZM17.4609 13.8045V14.0545C19.3939 14.0545 20.9608 15.6216 20.9609 17.5545L21.2109 17.5545L21.4609 17.5545C21.4608 15.3454 19.67 13.5545 17.4609 13.5545V13.8045ZM21.2109 17.5545H20.9609C20.9609 19.4875 19.3939 21.0545 17.4609 21.0545V21.3045V21.5545C19.6701 21.5545 21.4609 19.7637 21.4609 17.5545H21.2109ZM17.4609 21.3045V21.0545C15.5279 21.0545 13.9609 19.4875 13.9609 17.5545H13.7109H13.4609C13.4609 19.7637 15.2518 21.5545 17.4609 21.5545V21.3045ZM13.7109 17.5545L13.9609 17.5545C13.961 16.7319 14.2451 15.9766 14.7201 15.379L14.5244 15.2234L14.3287 15.0679C13.7861 15.7505 13.461 16.6146 13.4609 17.5545L13.7109 17.5545ZM14.5244 15.2234L14.7182 15.0656L11.9985 11.7267L11.8047 11.8846L11.6109 12.0425L14.3306 15.3813L14.5244 15.2234ZM11.8047 11.8846L11.6109 11.7267L9.09133 14.8195L9.28516 14.9774L9.47898 15.1353L11.9985 12.0425L11.8047 11.8846ZM9.28516 14.9774L9.10363 15.1493C9.69786 15.7768 10.0625 16.6226 10.0625 17.5545L10.3125 17.5545L10.5625 17.5545C10.5624 16.4894 10.1451 15.5219 9.46668 14.8055L9.28516 14.9774ZM10.3125 17.5545H10.0625C10.0625 19.4875 8.49551 21.0545 6.5625 21.0545V21.3045V21.5545C8.77165 21.5545 10.5625 19.7637 10.5625 17.5545H10.3125ZM6.5625 21.3045V21.0545C4.62949 21.0545 3.0625 19.4875 3.0625 17.5545H2.8125H2.5625C2.5625 19.7637 4.35335 21.5545 6.5625 21.5545V21.3045ZM2.8125 17.5545L3.0625 17.5545C3.06259 15.6216 4.62957 14.0545 6.5625 14.0545V13.8045V13.5545C4.3534 13.5545 2.56261 15.3454 2.5625 17.5545L2.8125 17.5545ZM6.5625 13.8045V14.0545C6.86058 14.0545 7.14956 14.0914 7.42494 14.1611L7.48633 13.9188L7.54771 13.6764C7.23214 13.5965 6.90192 13.5545 6.5625 13.5545V13.8045ZM7.48633 13.9188L7.68013 14.0767L10.6684 10.4097L10.4746 10.2518L10.2808 10.0938L7.29253 13.7608L7.48633 13.9188ZM10.4746 10.2518L10.6684 10.0939L8.11961 6.96497L7.92578 7.12286L7.73195 7.28076L10.2808 10.4097L10.4746 10.2518ZM7.92578 7.12286L8.11958 6.96493L6.99262 5.58211L6.79883 5.74005L6.60503 5.89799L7.73199 7.2808L7.92578 7.12286ZM6.79883 5.74005L6.99286 5.5824L6.96747 5.55115L6.77344 5.7088L6.57941 5.86645L6.6048 5.8977L6.79883 5.74005ZM6.77344 5.7088L6.9673 5.55095L6.36379 4.80974L6.16992 4.96759L5.97606 5.12544L6.57957 5.86665L6.77344 5.7088ZM6.16992 4.96759L6.36376 4.80971L6.08935 4.47279L5.89551 4.63067L5.70167 4.78856L5.97608 5.12547L6.16992 4.96759ZM5.89551 4.63067L6.08236 4.46458L6.07455 4.45579L5.8877 4.62189L5.70084 4.78798L5.70866 4.79677L5.89551 4.63067ZM5.8877 4.62189L6.08157 4.46405C6.03868 4.41136 5.99547 4.35797 5.92427 4.2706L5.73047 4.42853L5.53667 4.58645C5.6089 4.6751 5.64876 4.72438 5.69382 4.77972L5.8877 4.62189ZM5.73047 4.42853L5.92436 4.27071L5.78764 4.10274L5.59375 4.26056L5.39986 4.41838L5.53658 4.58634L5.73047 4.42853ZM5.59375 4.26056L5.77053 4.08378L5.76857 4.08183L5.5918 4.2586L5.41502 4.43538L5.41697 4.43733L5.59375 4.26056ZM5.5918 4.2586L5.78701 4.10243L5.7792 4.09266L5.58398 4.24884L5.38877 4.40501L5.39658 4.41478L5.5918 4.2586ZM5.58398 4.24884L5.77786 4.09101C5.50568 3.75667 5.55601 3.26501 5.89039 2.99241L5.73242 2.79864L5.57445 2.60487C5.02637 3.0517 4.9435 3.85807 5.39011 4.40667L5.58398 4.24884ZM5.73242 2.79864L5.89033 2.99246C6.22507 2.71975 6.71747 2.76975 6.98977 3.10401L7.18359 2.9461L7.37742 2.7882C6.93028 2.23935 6.12284 2.15811 5.57452 2.60482L5.73242 2.79864ZM7.18359 2.9461L6.98982 3.10407L7.13631 3.28376L7.33008 3.12579L7.52385 2.96783L7.37736 2.78814L7.18359 2.9461ZM7.33008 3.12579L7.13627 3.28371L7.26518 3.44191L7.45898 3.28399L7.65279 3.12608L7.52389 2.96787L7.33008 3.12579ZM7.45898 3.28399L7.26165 3.43748L7.26848 3.44627L7.46582 3.29278L7.66316 3.1393L7.65632 3.13051L7.45898 3.28399ZM7.46582 3.29278L7.27377 3.45283L7.28841 3.47041L7.48047 3.31036L7.67252 3.15032L7.65788 3.13274L7.46582 3.29278ZM7.48047 3.31036L7.28313 3.46385L7.28997 3.47264L7.4873 3.31915L7.68464 3.16567L7.67781 3.15688L7.48047 3.31036ZM7.4873 3.31915L7.29338 3.47692L7.57463 3.82263L7.76855 3.66485L7.96248 3.50708L7.68123 3.16138L7.4873 3.31915ZM7.76855 3.66485L7.57473 3.82276L9.33059 5.97803L9.52441 5.82013L9.71824 5.66223L7.96238 3.50695L7.76855 3.66485ZM9.52441 5.82013L9.3306 5.97804L11.6109 8.77686L11.8047 8.61896L11.9985 8.46105L9.71823 5.66222L9.52441 5.82013ZM11.8047 8.61896L11.9985 8.77686L14.2788 5.97804L14.085 5.82013L13.8911 5.66222L11.6109 8.46105L11.8047 8.61896ZM14.085 5.82013L14.2787 5.97808L16.0356 3.82281L15.8418 3.66485L15.648 3.5069L13.8912 5.66217L14.085 5.82013ZM15.8418 3.66485L16.0357 3.82263L16.317 3.47692L16.123 3.31915L15.9291 3.16138L15.6479 3.50708L15.8418 3.66485ZM16.123 3.31915L16.3204 3.47264L16.3272 3.46385L16.1299 3.31036L15.9325 3.15688L15.9257 3.16567L16.123 3.31915ZM16.1299 3.31036L16.3219 3.47041L16.3366 3.45283L16.1445 3.29278L15.9525 3.13274L15.9378 3.15032L16.1299 3.31036ZM16.1445 3.29278L16.3419 3.44627L16.3487 3.43748L16.1514 3.28399L15.954 3.13051L15.9472 3.1393L16.1445 3.29278ZM16.1514 3.28399L16.3452 3.44191L16.4741 3.28371L16.2803 3.12579L16.0865 2.96787L15.9576 3.12608L16.1514 3.28399ZM16.2803 3.12579L16.474 3.28376L16.6205 3.10407L16.4268 2.9461L16.233 2.78814L16.0865 2.96783L16.2803 3.12579ZM6.5625 15.867V15.617C5.49247 15.617 4.62511 16.4845 4.625 17.5545L4.875 17.5545L5.125 17.5545C5.12509 16.7606 5.76867 16.117 6.5625 16.117V15.867ZM4.875 17.5545H4.625C4.625 18.6246 5.49244 19.492 6.5625 19.492V19.242V18.992C5.76858 18.992 5.125 18.3484 5.125 17.5545H4.875ZM6.5625 19.242V19.492C7.63256 19.492 8.5 18.6246 8.5 17.5545H8.25H8C8 18.3484 7.35642 18.992 6.5625 18.992V19.242ZM8.25 17.5545L8.5 17.5545C8.49989 16.4845 7.63253 15.617 6.5625 15.617V15.867V16.117C7.35633 16.117 7.99991 16.7606 8 17.5545L8.25 17.5545ZM17.4609 15.867V15.617C16.3909 15.617 15.5236 16.4845 15.5234 17.5545L15.7734 17.5545L16.0234 17.5545C16.0235 16.7606 16.6671 16.117 17.4609 16.117V15.867ZM15.7734 17.5545H15.5234C15.5234 18.6246 16.3909 19.492 17.4609 19.492V19.242V18.992C16.667 18.992 16.0234 18.3484 16.0234 17.5545H15.7734ZM17.4609 19.242V19.492C18.531 19.492 19.3984 18.6246 19.3984 17.5545H19.1484H18.8984C18.8984 18.3484 18.2549 18.992 17.4609 18.992V19.242ZM19.1484 17.5545L19.3984 17.5545C19.3983 16.4845 18.531 15.617 17.4609 15.617V15.867V16.117C18.2548 16.117 18.8984 16.7606 18.8984 17.5545L19.1484 17.5545Z" fill="var(--stroke-0, white)"/>
</g>
</g>
</svg>
