<svg preserveAspectRatio="none" width="100%" height="100%" overflow="visible" style="display: block;" viewBox="0 0 24 24" fill="none" xmlns="http://www.w3.org/2000/svg">
<g id="Frame">
<g id="Union">
<path d="M16.4268 2.94669C16.7865 2.50513 17.4364 2.43854 17.8779 2.79826C18.3194 3.15797 18.386 3.80788 18.0264 4.24943L18.0186 4.25822L18.0166 4.26115L17.8799 4.42912L17.7217 4.62247L17.7148 4.63126L17.4404 4.96818L16.8369 5.70939L16.8115 5.73966L15.6846 7.12345L13.1348 10.2524L16.2061 14.0209C16.5985 13.8816 17.0207 13.8051 17.4609 13.8051C19.532 13.8051 21.2109 15.484 21.2109 17.5551C21.2108 19.6261 19.532 21.3051 17.4609 21.3051C15.3899 21.3051 13.711 19.6261 13.7109 17.5551C13.7109 16.6736 14.0154 15.8633 14.5244 15.2231L11.8047 11.8852L9.28418 14.9779C9.9207 15.65 10.3125 16.5564 10.3125 17.5551C10.3124 19.6261 8.63351 21.3051 6.5625 21.3051C4.49149 21.3051 2.8126 19.6261 2.8125 17.5551C2.8125 15.484 4.49142 13.8051 6.5625 13.8051C6.88128 13.8051 7.19082 13.8445 7.48633 13.9193L10.4746 10.2514L7.92578 7.12345L6.79883 5.73966L6.77344 5.70939L6.16992 4.96818L5.89551 4.63126L5.8877 4.62247C5.84367 4.56839 5.80225 4.5172 5.73047 4.42912L5.59375 4.26115L5.5918 4.25822L5.58398 4.24943C5.22431 3.80787 5.29088 3.15798 5.73242 2.79826C6.17396 2.43856 6.82388 2.50514 7.18359 2.94669L7.33008 3.12638L7.45898 3.28458L7.46582 3.29337L7.48047 3.31095L7.4873 3.31974L7.76855 3.66544L9.52441 5.82072L11.8047 8.61857L14.085 5.82072L15.8418 3.66544L16.123 3.31974L16.1299 3.31095L16.1445 3.29337L16.1514 3.28458L16.2803 3.12638L16.4268 2.94669ZM6.5625 15.8676C5.63051 15.8676 4.875 16.6231 4.875 17.5551C4.8751 18.487 5.63057 19.2426 6.5625 19.2426C7.49443 19.2426 8.2499 18.487 8.25 17.5551C8.25 16.6231 7.49449 15.8676 6.5625 15.8676ZM17.4609 15.8676C16.5289 15.8676 15.7734 16.6231 15.7734 17.5551C15.7735 18.487 16.529 19.2426 17.4609 19.2426C18.3929 19.2426 19.1483 18.487 19.1484 17.5551C19.1484 16.6231 18.3929 15.8676 17.4609 15.8676Z" fill="var(--fill-0, #666666)"/>
<path d="M16.4268 2.94669L16.6205 3.10466L16.6206 3.1046L16.4268 2.94669ZM17.8779 2.79826L18.0358 2.60444L18.0358 2.60443L17.8779 2.79826ZM18.0264 4.24943L18.2134 4.41567L18.2202 4.4073L18.0264 4.24943ZM18.0186 4.25822L17.8317 4.09213L17.8202 4.1051L17.8105 4.11954L18.0186 4.25822ZM18.0166 4.26115L18.2105 4.41896L18.218 4.40973L18.2246 4.39982L18.0166 4.26115ZM17.8799 4.42912L18.0734 4.58743L18.0738 4.58693L17.8799 4.42912ZM17.7217 4.62247L17.5281 4.46412L17.5243 4.46899L17.7217 4.62247ZM17.7148 4.63126L17.9087 4.78918L17.9122 4.78475L17.7148 4.63126ZM17.4404 4.96818L17.2466 4.8103L17.2466 4.81033L17.4404 4.96818ZM16.8369 5.70939L17.0285 5.87006L17.0308 5.86724L16.8369 5.70939ZM16.8115 5.73966L16.62 5.57899L16.6177 5.58179L16.8115 5.73966ZM15.6846 7.12345L15.8784 7.28138L15.8784 7.28132L15.6846 7.12345ZM13.1348 10.2524L12.941 10.0944L12.8123 10.2524L12.941 10.4103L13.1348 10.2524ZM16.2061 14.0209L16.0123 14.1788L16.1236 14.3155L16.2897 14.2565L16.2061 14.0209ZM21.2109 17.5551L21.4609 17.5551V17.5551H21.2109ZM13.7109 17.5551H13.4609V17.5551L13.7109 17.5551ZM14.5244 15.2231L14.7201 15.3787L14.8453 15.2211L14.7182 15.0651L14.5244 15.2231ZM11.8047 11.8852L11.9985 11.7273L11.8047 11.4894L11.6109 11.7272L11.8047 11.8852ZM9.28418 14.9779L9.09039 14.82L8.95158 14.9903L9.10267 15.1499L9.28418 14.9779ZM10.3125 17.5551L10.5625 17.5551V17.5551H10.3125ZM2.8125 17.5551H2.5625V17.5551L2.8125 17.5551ZM7.48633 13.9193L7.42494 14.1617L7.57946 14.2008L7.68015 14.0773L7.48633 13.9193ZM10.4746 10.2514L10.6684 10.4093L10.7971 10.2514L10.6684 10.0935L10.4746 10.2514ZM7.92578 7.12345L7.73193 7.28132L7.73198 7.28137L7.92578 7.12345ZM6.79883 5.73966L6.9927 5.58178L6.99038 5.57901L6.79883 5.73966ZM6.77344 5.70939L6.57955 5.86726L6.58189 5.87004L6.77344 5.70939ZM6.16992 4.96818L6.36379 4.81033L6.36376 4.8103L6.16992 4.96818ZM5.89551 4.63126L6.08953 4.47324L6.08236 4.46517L5.89551 4.63126ZM5.8877 4.62247L5.69364 4.78046L5.70084 4.78857L5.8877 4.62247ZM5.73047 4.42912L5.53658 4.58693L5.53667 4.58704L5.73047 4.42912ZM5.59375 4.26115L5.38574 4.39982L5.39234 4.40973L5.39986 4.41896L5.59375 4.26115ZM5.5918 4.25822L5.79981 4.11954L5.79018 4.1051L5.77865 4.09213L5.5918 4.25822ZM5.58398 4.24943L5.38997 4.40746L5.39713 4.41552L5.58398 4.24943ZM5.73242 2.79826L5.57452 2.60443L5.57452 2.60444L5.73242 2.79826ZM7.18359 2.94669L6.98977 3.10459L6.98982 3.10466L7.18359 2.94669ZM7.33008 3.12638L7.52389 2.96846L7.52385 2.96842L7.33008 3.12638ZM7.45898 3.28458L7.65637 3.13106L7.65279 3.12667L7.45898 3.28458ZM7.46582 3.29337L7.26837 3.44695L7.27377 3.45342L7.46582 3.29337ZM7.48047 3.31095L7.67792 3.15738L7.67252 3.15091L7.48047 3.31095ZM7.4873 3.31974L7.28992 3.47326L7.29338 3.47751L7.4873 3.31974ZM7.76855 3.66544L7.57463 3.82322L7.57473 3.82335L7.76855 3.66544ZM9.52441 5.82072L9.33059 5.97862L9.33062 5.97866L9.52441 5.82072ZM11.8047 8.61857L11.6109 8.77651L11.8047 9.01429L11.9985 8.77651L11.8047 8.61857ZM14.085 5.82072L13.8912 5.66276L13.8912 5.66278L14.085 5.82072ZM15.8418 3.66544L16.0356 3.8234L16.0357 3.82322L15.8418 3.66544ZM16.123 3.31974L16.317 3.47755L16.3204 3.47323L16.123 3.31974ZM16.1299 3.31095L15.9377 3.15081L15.9325 3.15747L16.1299 3.31095ZM16.1445 3.29337L16.3367 3.45351L16.3419 3.44686L16.1445 3.29337ZM16.1514 3.28458L15.9575 3.12663L15.954 3.1311L16.1514 3.28458ZM16.2803 3.12638L16.0865 2.96842L16.0865 2.96846L16.2803 3.12638ZM4.875 17.5551H4.625V17.5551L4.875 17.5551ZM8.25 17.5551L8.5 17.5551V17.5551H8.25ZM15.7734 17.5551H15.5234V17.5551L15.7734 17.5551ZM19.1484 17.5551L19.3984 17.5551V17.5551H19.1484ZM16.4268 2.94669L16.6206 3.1046C16.8932 2.77 17.3856 2.71963 17.72 2.99208L17.8779 2.79826L18.0358 2.60443C17.4871 2.15744 16.6798 2.24026 16.2329 2.78879L16.4268 2.94669ZM17.8779 2.79826L17.72 2.99207C18.0545 3.26463 18.1049 3.75711 17.8325 4.09155L18.0264 4.24943L18.2202 4.4073C18.6671 3.85865 18.5843 3.05131 18.0358 2.60444L17.8779 2.79826ZM18.0264 4.24943L17.8395 4.08334L17.8317 4.09213L18.0186 4.25822L18.2054 4.42431L18.2132 4.41552L18.0264 4.24943ZM18.0186 4.25822L17.8105 4.11954L17.8086 4.12247L18.0166 4.26115L18.2246 4.39982L18.2266 4.39689L18.0186 4.25822ZM18.0166 4.26115L17.8227 4.10333L17.686 4.2713L17.8799 4.42912L18.0738 4.58693L18.2105 4.41896L18.0166 4.26115ZM17.8799 4.42912L17.6864 4.27081L17.5282 4.46417L17.7217 4.62247L17.9152 4.78078L18.0734 4.58742L17.8799 4.42912ZM17.7217 4.62247L17.5243 4.46899L17.5175 4.47778L17.7148 4.63126L17.9122 4.78475L17.919 4.77596L17.7217 4.62247ZM17.7148 4.63126L17.521 4.47338L17.2466 4.8103L17.4404 4.96818L17.6343 5.12606L17.9087 4.78914L17.7148 4.63126ZM17.4404 4.96818L17.2466 4.81033L16.6431 5.55154L16.8369 5.70939L17.0308 5.86724L17.6343 5.12603L17.4404 4.96818ZM16.8369 5.70939L16.6454 5.54874L16.62 5.57901L16.8115 5.73966L17.0031 5.90032L17.0285 5.87004L16.8369 5.70939ZM16.8115 5.73966L16.6177 5.58179L15.4907 6.96558L15.6846 7.12345L15.8784 7.28132L17.0054 5.89753L16.8115 5.73966ZM15.6846 7.12345L15.4908 6.96552L12.941 10.0944L13.1348 10.2524L13.3286 10.4103L15.8784 7.28138L15.6846 7.12345ZM13.1348 10.2524L12.941 10.4103L16.0123 14.1788L16.2061 14.0209L16.3998 13.863L13.3286 10.0944L13.1348 10.2524ZM16.2061 14.0209L16.2897 14.2565C16.6559 14.1265 17.0499 14.0551 17.4609 14.0551V13.8051V13.5551C16.9916 13.5551 16.5411 13.6367 16.1224 13.7853L16.2061 14.0209ZM17.4609 13.8051V14.0551C19.3939 14.0551 20.9609 15.6221 20.9609 17.5551H21.2109H21.4609C21.4609 15.3459 19.6701 13.5551 17.4609 13.5551V13.8051ZM21.2109 17.5551L20.9609 17.5551C20.9608 19.488 19.3939 21.0551 17.4609 21.0551V21.3051V21.5551C19.67 21.5551 21.4608 19.7641 21.4609 17.5551L21.2109 17.5551ZM17.4609 21.3051V21.0551C15.528 21.0551 13.961 19.488 13.9609 17.5551L13.7109 17.5551L13.4609 17.5551C13.461 19.7641 15.2518 21.5551 17.4609 21.5551V21.3051ZM13.7109 17.5551H13.9609C13.9609 16.7322 14.2449 15.9763 14.7201 15.3787L14.5244 15.2231L14.3287 15.0675C13.7858 15.7502 13.4609 16.615 13.4609 17.5551H13.7109ZM14.5244 15.2231L14.7182 15.0651L11.9985 11.7273L11.8047 11.8852L11.6109 12.0431L14.3306 15.381L14.5244 15.2231ZM11.8047 11.8852L11.6109 11.7272L9.09039 14.82L9.28418 14.9779L9.47797 15.1359L11.9985 12.0431L11.8047 11.8852ZM9.28418 14.9779L9.10267 15.1499C9.6972 15.7776 10.0625 16.6232 10.0625 17.5551H10.3125H10.5625C10.5625 16.4896 10.1442 15.5224 9.46569 14.806L9.28418 14.9779ZM10.3125 17.5551L10.0625 17.5551C10.0624 19.488 8.49543 21.0551 6.5625 21.0551V21.3051V21.5551C8.7716 21.5551 10.5624 19.7641 10.5625 17.5551L10.3125 17.5551ZM6.5625 21.3051V21.0551C4.62957 21.0551 3.0626 19.488 3.0625 17.5551L2.8125 17.5551L2.5625 17.5551C2.56261 19.7641 4.3534 21.5551 6.5625 21.5551V21.3051ZM2.8125 17.5551H3.0625C3.0625 15.6221 4.62949 14.0551 6.5625 14.0551V13.8051V13.5551C4.35335 13.5551 2.5625 15.3459 2.5625 17.5551H2.8125ZM6.5625 13.8051V14.0551C6.86062 14.0551 7.14953 14.0919 7.42494 14.1617L7.48633 13.9193L7.54772 13.677C7.23211 13.5971 6.90195 13.5551 6.5625 13.5551V13.8051ZM7.48633 13.9193L7.68015 14.0773L10.6684 10.4093L10.4746 10.2514L10.2808 10.0935L7.29251 13.7614L7.48633 13.9193ZM10.4746 10.2514L10.6684 10.0935L8.11959 6.96553L7.92578 7.12345L7.73198 7.28137L10.2808 10.4093L10.4746 10.2514ZM7.92578 7.12345L8.11963 6.96558L6.99268 5.58179L6.79883 5.73966L6.60498 5.89753L7.73193 7.28132L7.92578 7.12345ZM6.79883 5.73966L6.99038 5.57901L6.96499 5.54874L6.77344 5.70939L6.58189 5.87004L6.60728 5.90032L6.79883 5.73966ZM6.77344 5.70939L6.9673 5.55154L6.36379 4.81033L6.16992 4.96818L5.97606 5.12603L6.57957 5.86724L6.77344 5.70939ZM6.16992 4.96818L6.36376 4.8103L6.08935 4.47338L5.89551 4.63126L5.70167 4.78914L5.97608 5.12606L6.16992 4.96818ZM5.89551 4.63126L6.08236 4.46517L6.07455 4.45638L5.8877 4.62247L5.70084 4.78857L5.70866 4.79735L5.89551 4.63126ZM5.8877 4.62247L6.08157 4.46464C6.03862 4.41188 5.99553 4.35864 5.92427 4.27119L5.73047 4.42912L5.53667 4.58704C5.60896 4.67576 5.64871 4.72491 5.69382 4.78031L5.8877 4.62247ZM5.73047 4.42912L5.92436 4.2713L5.78764 4.10333L5.59375 4.26115L5.39986 4.41896L5.53658 4.58693L5.73047 4.42912ZM5.59375 4.26115L5.80176 4.12247L5.79981 4.11954L5.5918 4.25822L5.38378 4.39689L5.38574 4.39982L5.59375 4.26115ZM5.5918 4.25822L5.77865 4.09213L5.77084 4.08334L5.58398 4.24943L5.39713 4.41552L5.40494 4.42431L5.5918 4.25822ZM5.58398 4.24943L5.77782 4.09154C5.50539 3.75709 5.55576 3.26465 5.89033 2.99208L5.73242 2.79826L5.57452 2.60444C5.026 3.05132 4.94323 3.85865 5.39015 4.40731L5.58398 4.24943ZM5.73242 2.79826L5.89032 2.99208C6.22474 2.71965 6.71721 2.77002 6.98977 3.10459L7.18359 2.94669L7.37742 2.78879C6.93056 2.24026 6.12318 2.15748 5.57452 2.60443L5.73242 2.79826ZM7.18359 2.94669L6.98982 3.10466L7.13631 3.28435L7.33008 3.12638L7.52385 2.96842L7.37736 2.78873L7.18359 2.94669ZM7.33008 3.12638L7.13627 3.2843L7.26518 3.4425L7.45898 3.28458L7.65279 3.12667L7.52389 2.96846L7.33008 3.12638ZM7.45898 3.28458L7.26165 3.43807L7.26848 3.44686L7.46582 3.29337L7.66316 3.13989L7.65632 3.1311L7.45898 3.28458ZM7.46582 3.29337L7.27377 3.45342L7.28841 3.471L7.48047 3.31095L7.67252 3.15091L7.65788 3.13333L7.46582 3.29337ZM7.48047 3.31095L7.28313 3.46444L7.28997 3.47323L7.4873 3.31974L7.68464 3.16626L7.67781 3.15747L7.48047 3.31095ZM7.4873 3.31974L7.29338 3.47751L7.57463 3.82322L7.76855 3.66544L7.96248 3.50767L7.68123 3.16197L7.4873 3.31974ZM7.76855 3.66544L7.57473 3.82335L9.33059 5.97862L9.52441 5.82072L9.71824 5.66281L7.96238 3.50754L7.76855 3.66544ZM9.52441 5.82072L9.33062 5.97866L11.6109 8.77651L11.8047 8.61857L11.9985 8.46063L9.7182 5.66278L9.52441 5.82072ZM11.8047 8.61857L11.9985 8.77651L14.2788 5.97866L14.085 5.82072L13.8912 5.66278L11.6109 8.46063L11.8047 8.61857ZM14.085 5.82072L14.2787 5.97867L16.0356 3.8234L15.8418 3.66544L15.648 3.50749L13.8912 5.66276L14.085 5.82072ZM15.8418 3.66544L16.0357 3.82322L16.317 3.47751L16.123 3.31974L15.9291 3.16197L15.6479 3.50767L15.8418 3.66544ZM16.123 3.31974L16.3204 3.47323L16.3272 3.46444L16.1299 3.31095L15.9325 3.15747L15.9257 3.16626L16.123 3.31974ZM16.1299 3.31095L16.3219 3.471L16.3366 3.45342L16.1445 3.29337L15.9525 3.13333L15.9378 3.15091L16.1299 3.31095ZM16.1445 3.29337L16.3419 3.44686L16.3487 3.43807L16.1514 3.28458L15.954 3.1311L15.9472 3.13989L16.1445 3.29337ZM16.1514 3.28458L16.3452 3.4425L16.4741 3.2843L16.2803 3.12638L16.0865 2.96846L15.9576 3.12667L16.1514 3.28458ZM16.2803 3.12638L16.474 3.28435L16.6205 3.10466L16.4268 2.94669L16.233 2.78873L16.0865 2.96842L16.2803 3.12638ZM6.5625 15.8676V15.6176C5.49244 15.6176 4.625 16.485 4.625 17.5551H4.875H5.125C5.125 16.7612 5.76858 16.1176 6.5625 16.1176V15.8676ZM4.875 17.5551L4.625 17.5551C4.62512 18.625 5.49247 19.4926 6.5625 19.4926V19.2426V18.9926C5.76867 18.9926 5.12509 18.3489 5.125 17.5551L4.875 17.5551ZM6.5625 19.2426V19.4926C7.63253 19.4926 8.49988 18.625 8.5 17.5551L8.25 17.5551L8 17.5551C7.99991 18.3489 7.35633 18.9926 6.5625 18.9926V19.2426ZM8.25 17.5551H8.5C8.5 16.485 7.63256 15.6176 6.5625 15.6176V15.8676V16.1176C7.35642 16.1176 8 16.7612 8 17.5551H8.25ZM17.4609 15.8676V15.6176C16.3909 15.6176 15.5234 16.485 15.5234 17.5551H15.7734H16.0234C16.0234 16.7612 16.667 16.1176 17.4609 16.1176V15.8676ZM15.7734 17.5551L15.5234 17.5551C15.5236 18.625 16.3909 19.4926 17.4609 19.4926V19.2426V18.9926C16.6671 18.9926 16.0235 18.3489 16.0234 17.5551L15.7734 17.5551ZM17.4609 19.2426V19.4926C18.531 19.4926 19.3983 18.625 19.3984 17.5551L19.1484 17.5551L18.8984 17.5551C18.8983 18.3489 18.2548 18.9926 17.4609 18.9926V19.2426ZM19.1484 17.5551H19.3984C19.3984 16.485 18.531 15.6176 17.4609 15.6176V15.8676V16.1176C18.2549 16.1176 18.8984 16.7612 18.8984 17.5551H19.1484Z" fill="var(--stroke-0, white)"/>
</g>
</g>
</svg>
