<svg preserveAspectRatio="none" width="100%" height="100%" overflow="visible" style="display: block;" viewBox="0 0 24 24" fill="none" xmlns="http://www.w3.org/2000/svg">
<g id="Frame">
<path id="Vector" d="M18.3901 6.45794H12.6084V5.61701C12.6084 4.17395 11.4377 3 9.99871 3H3.67395C3.31425 3 3.02218 3.29201 3.02153 3.65294L3.01261 8.09226C3.01261 8.12497 3.01501 8.15725 3.01957 8.18887L3 18.383C3 19.8261 4.17066 21 5.60967 21H18.3903C19.8293 21 21 19.8261 21 18.383V9.07495C20.9998 7.6321 19.8291 6.45794 18.3901 6.45794ZM9.99871 4.3085C10.7181 4.3085 11.3035 4.89559 11.3035 5.61701V6.45794H4.32071L4.32506 4.3085H9.99871ZM19.6949 18.383C19.6949 19.1044 19.1095 19.6915 18.3901 19.6915H5.60946C4.89006 19.6915 4.30462 19.1044 4.30462 18.3843L4.32506 7.76644H18.3901C19.1095 7.76644 19.6949 8.35353 19.6949 9.07495V18.383Z" fill="var(--fill-0, #666666)"/>
</g>
</svg>
