<svg preserveAspectRatio="none" width="100%" height="100%" overflow="visible" style="display: block;" viewBox="0 0 24 24" fill="none" xmlns="http://www.w3.org/2000/svg">
<g id="Frame">
<path id="Vector" d="M11.9192 1.56836C9.13805 1.57114 6.47162 2.67717 4.50506 4.64373C2.5385 6.61029 1.43247 9.27672 1.42969 12.0579C1.43247 14.839 2.5385 17.5054 4.50506 19.472C6.47162 21.4385 9.13805 22.5446 11.9192 22.5474C14.7003 22.5446 17.3668 21.4385 19.3333 19.472C21.2999 17.5054 22.4059 14.839 22.4087 12.0579C22.4059 9.27672 21.2999 6.61029 19.3333 4.64373C17.3668 2.67717 14.7003 1.57114 11.9192 1.56836ZM11.9192 21.0474C9.53588 21.0446 7.25098 20.0966 5.56572 18.4113C3.88046 16.7261 2.93247 14.4412 2.92969 12.0579C2.93247 9.67455 3.88046 7.38965 5.56572 5.70439C7.25098 4.01914 9.53588 3.07114 11.9192 3.06836C14.3025 3.07114 16.5874 4.01914 18.2727 5.70439C19.9579 7.38965 20.9059 9.67455 20.9087 12.0579C20.9059 14.4412 19.9579 16.7261 18.2727 18.4113C16.5874 20.0966 14.3025 21.0446 11.9192 21.0474Z" fill="var(--fill-0, #666666)"/>
<path id="Vector_2" d="M7.48828 9.48047C7.48828 9.62821 7.51738 9.7745 7.57392 9.91099C7.63045 10.0475 7.71332 10.1715 7.81779 10.276C7.92225 10.3804 8.04627 10.4633 8.18276 10.5198C8.31925 10.5764 8.46554 10.6055 8.61328 10.6055C8.76102 10.6055 8.90731 10.5764 9.0438 10.5198C9.18029 10.4633 9.30431 10.3804 9.40878 10.276C9.51324 10.1715 9.59611 10.0475 9.65265 9.91099C9.70918 9.7745 9.73828 9.62821 9.73828 9.48047C9.73828 9.33273 9.70918 9.18644 9.65265 9.04995C9.59611 8.91346 9.51324 8.78944 9.40878 8.68497C9.30431 8.58051 9.18029 8.49764 9.0438 8.4411C8.90731 8.38457 8.76102 8.35547 8.61328 8.35547C8.46554 8.35547 8.31925 8.38457 8.18276 8.4411C8.04627 8.49764 7.92225 8.58051 7.81779 8.68497C7.71332 8.78944 7.63045 8.91346 7.57392 9.04995C7.51738 9.18644 7.48828 9.33273 7.48828 9.48047Z" fill="var(--fill-0, #666666)"/>
<path id="Vector_3" d="M13.7695 9.48047C13.7695 9.77884 13.8881 10.065 14.099 10.276C14.31 10.4869 14.5962 10.6055 14.8945 10.6055C15.1929 10.6055 15.479 10.4869 15.69 10.276C15.901 10.065 16.0195 9.77884 16.0195 9.48047C16.0195 9.1821 15.901 8.89595 15.69 8.68497C15.479 8.474 15.1929 8.35547 14.8945 8.35547C14.5962 8.35547 14.31 8.474 14.099 8.68497C13.8881 8.89595 13.7695 9.1821 13.7695 9.48047Z" fill="var(--fill-0, #666666)"/>
<path id="Vector_4" d="M15.686 14.3684C15.6032 14.3152 15.5107 14.2789 15.4138 14.2615C15.317 14.2441 15.2176 14.246 15.1215 14.267C15.0254 14.2881 14.9343 14.3279 14.8536 14.3841C14.7728 14.4404 14.704 14.512 14.651 14.5949C14.1635 15.3554 13.058 15.8474 11.837 15.8474C10.616 15.8474 9.51196 15.3569 9.02446 14.5964C8.97252 14.5111 8.90403 14.4369 8.82304 14.3784C8.74205 14.3199 8.65018 14.2781 8.55282 14.2556C8.45547 14.2331 8.3546 14.2303 8.25613 14.2473C8.15767 14.2643 8.06359 14.3008 7.97943 14.3547C7.89528 14.4085 7.82273 14.4787 7.76606 14.561C7.70939 14.6433 7.66974 14.7361 7.64944 14.8339C7.62913 14.9318 7.62858 15.0327 7.64782 15.1307C7.66706 15.2288 7.7057 15.322 7.76146 15.4049C8.52947 16.6034 10.091 17.3474 11.837 17.3474C13.5845 17.3474 15.146 16.6034 15.914 15.4034C16.0208 15.2359 16.0568 15.0328 16.0141 14.8387C15.9713 14.6447 15.8533 14.4755 15.686 14.3684Z" fill="var(--fill-0, #666666)"/>
</g>
</svg>
