<svg preserveAspectRatio="none" width="100%" height="100%" overflow="visible" style="display: block;" viewBox="0 0 24 24" fill="none" xmlns="http://www.w3.org/2000/svg">
<g id="Frame" clip-path="url(#clip0_4935_169778)">
<path id="Vector" d="M20.8725 13.1149C20.9221 12.733 20.9541 12.3512 20.9541 11.9431C20.9541 11.5379 20.9162 11.156 20.8725 10.7712L23.3912 8.80062C23.6185 8.62277 23.6798 8.2992 23.534 8.03683L21.1466 3.90618C21.0037 3.64386 20.6801 3.54764 20.4178 3.64386L17.4444 4.83902C16.8235 4.36096 16.153 3.96743 15.4272 3.66716L14.9724 0.501389C14.9346 0.21281 14.6868 0 14.3865 0H9.60869C9.31135 0 9.06062 0.215714 9.02275 0.501389L8.56799 3.66716C7.83923 3.9645 7.17168 4.37262 6.55077 4.83902L3.57739 3.64383C3.30047 3.53598 2.99147 3.64383 2.84862 3.9062L0.461197 8.03686C0.303803 8.2992 0.379595 8.62277 0.604046 8.80062L3.12268 10.7712C3.07312 11.1531 3.04105 11.5466 3.04105 11.9431C3.04105 12.3395 3.07895 12.7301 3.12268 13.1149L0.601142 15.0855C0.37374 15.2633 0.312539 15.5869 0.458292 15.8492L2.84574 19.9799C2.98856 20.2423 3.31216 20.3385 3.57451 20.2423L6.54789 19.0471C7.1688 19.5251 7.83925 19.9187 8.56511 20.2189L9.01984 23.3847C9.05774 23.6704 9.30554 23.8861 9.60579 23.8861H14.3836C14.6809 23.8861 14.9316 23.6704 14.9695 23.3847L15.4243 20.2189C16.153 19.9216 16.8206 19.5135 17.4415 19.0471L20.4149 20.2423C20.6918 20.3501 21.0008 20.2423 21.1436 19.9799L23.5311 15.8492C23.6739 15.5869 23.6127 15.2633 23.3882 15.0855L20.8725 13.1149ZM11.9991 16.1262C9.69324 16.1262 7.81885 14.2518 7.81885 11.946C7.81885 9.64014 9.69324 7.76575 11.9991 7.76575C14.3049 7.76575 16.1793 9.64014 16.1793 11.946C16.1793 14.2518 14.3049 16.1262 11.9991 16.1262Z" fill="var(--fill-0, #666666)"/>
</g>
<defs>
<clipPath id="clip0_4935_169778">
<rect width="24" height="24" fill="white"/>
</clipPath>
</defs>
</svg>
