<svg preserveAspectRatio="none" width="100%" height="100%" overflow="visible" style="display: block;" viewBox="0 0 24 24" fill="none" xmlns="http://www.w3.org/2000/svg">
<g id="Frame">
<path id="Vector" d="M10.6551 2.26664L8.0741 7.49664L2.3021 8.33564C2.02525 8.37601 1.76522 8.49301 1.55137 8.6734C1.33752 8.8538 1.17839 9.0904 1.09195 9.35649C1.00551 9.62257 0.995203 9.90753 1.0622 10.1792C1.1292 10.4508 1.27084 10.6983 1.4711 10.8936L5.6471 14.9646L4.6611 20.7136C4.60555 21.0386 4.65862 21.3729 4.8121 21.6646L4.8851 21.7896C5.08958 22.1016 5.40294 22.3261 5.76403 22.4195C6.12512 22.5128 6.50804 22.4683 6.8381 22.2946L12.0001 19.5806L17.1621 22.2946C17.4098 22.425 17.6891 22.4835 17.9683 22.4634C18.2476 22.4433 18.5156 22.3455 18.7421 22.181C18.9686 22.0165 19.1446 21.7918 19.2501 21.5325C19.3556 21.2732 19.3864 20.9896 19.3391 20.7136L18.3531 14.9646L22.5291 10.8946C22.7299 10.6994 22.8721 10.4517 22.9394 10.1798C23.0068 9.90788 22.9966 9.62253 22.9101 9.35608C22.8236 9.08962 22.6643 8.85272 22.4501 8.67219C22.2358 8.49166 21.9753 8.37473 21.6981 8.33464L15.9261 7.49664L13.3461 2.26664C13.2223 2.01544 13.0307 1.80391 12.7929 1.656C12.5551 1.50808 12.2806 1.42969 12.0006 1.42969C11.7206 1.42969 11.4461 1.50808 11.2083 1.656C10.9705 1.80391 10.7789 2.01544 10.6551 2.26664ZM12.0001 4.06064L14.1331 8.38164L14.2111 8.52564C14.3638 8.77998 14.5711 8.99718 14.8181 9.16149C15.0651 9.32579 15.3455 9.43311 15.6391 9.47564L20.4071 10.1676L16.9571 13.5326L16.8441 13.6516C16.6495 13.8754 16.5071 14.1396 16.4272 14.4251C16.3473 14.7107 16.3319 15.0104 16.3821 15.3026L17.1961 20.0516L12.4661 17.5656L12.3541 17.5156C12.2217 17.4654 12.0801 17.4439 11.9387 17.4525C11.7974 17.4612 11.6594 17.4997 11.5341 17.5656L6.8041 20.0506L7.6191 15.3016L7.6401 15.1396C7.6662 14.8442 7.62627 14.5466 7.52319 14.2685C7.42011 13.9904 7.25646 13.7387 7.0441 13.5316L3.5931 10.1666L8.3631 9.47464C8.68383 9.42789 8.98839 9.30389 9.25056 9.11331C9.51273 8.92273 9.72466 8.6713 9.8681 8.38064L12.0001 4.06064Z" fill="var(--fill-0, #666666)" stroke="var(--stroke-0, #EDEDED)" stroke-width="0.5"/>
</g>
</svg>
