<svg preserveAspectRatio="none" width="100%" height="100%" overflow="visible" style="display: block;" viewBox="0 0 24 24" fill="none" xmlns="http://www.w3.org/2000/svg">
<g id="Frame">
<path id="Vector" d="M19.3373 21.5252H6.00111C5.24321 21.5252 4.51635 21.2241 3.98043 20.6882C3.44451 20.1523 3.14344 19.4254 3.14344 18.6675V5.33244C3.14344 4.57454 3.44451 3.84768 3.98043 3.31176C4.51635 2.77584 5.24321 2.47477 6.00111 2.47477H19.3373C19.8631 2.47477 20.2895 2.90113 20.2895 3.42694V20.573C20.2895 21.0988 19.8631 21.5252 19.3373 21.5252ZM18.384 19.6208V17.7153H6.00111C5.74843 17.7153 5.50609 17.8157 5.32742 17.9944C5.14874 18.173 5.04836 18.4154 5.04836 18.6681C5.04836 18.9207 5.14874 19.1631 5.32742 19.3418C5.50609 19.5204 5.74843 19.6208 6.00111 19.6208H18.384ZM5.04893 15.9733C5.34613 15.867 5.66619 15.8098 6.00111 15.8098H18.384V4.37912H6.00111C5.87597 4.37912 5.75206 4.40379 5.63647 4.45171C5.52087 4.49963 5.41585 4.56987 5.32742 4.65841C5.23898 4.74695 5.16887 4.85205 5.12109 4.96771C5.0733 5.08336 5.04878 5.2073 5.04893 5.33244V15.9733ZM11.7165 10.0945C11.4624 10.1007 11.2096 10.056 10.9731 9.96309C10.7365 9.87016 10.5209 9.73084 10.339 9.55333C10.1571 9.37583 10.0125 9.16373 9.91384 8.92951C9.81514 8.6953 9.7643 8.4437 9.7643 8.18954C9.7643 7.93538 9.81514 7.68379 9.91384 7.44957C10.0125 7.21536 10.1571 7.00326 10.339 6.82575C10.5209 6.64825 10.7365 6.50893 10.9731 6.416C11.2096 6.32306 11.4624 6.27839 11.7165 6.28462C12.2136 6.2968 12.6863 6.50284 13.0336 6.85875C13.3809 7.21467 13.5753 7.69226 13.5753 8.18954C13.5753 8.68683 13.3809 9.16442 13.0336 9.52033C12.6863 9.87625 12.2136 10.0823 11.7165 10.0945ZM8.85879 13.9055C8.85879 13.1476 9.15986 12.4207 9.69578 11.8848C10.2317 11.3489 10.9586 11.0478 11.7165 11.0478C12.4744 11.0478 13.2012 11.3489 13.7371 11.8848C14.2731 12.4207 14.5741 13.1476 14.5741 13.9055H8.85879Z" fill="var(--fill-0, #666666)" stroke="var(--stroke-0, #EDEDED)" stroke-width="0.5"/>
</g>
</svg>
