<svg preserveAspectRatio="none" width="100%" height="100%" overflow="visible" style="display: block;" viewBox="0 0 24 24" fill="none" xmlns="http://www.w3.org/2000/svg">
<g id="Frame">
<path id="Vector" d="M12 2.75989C17.1109 2.75989 21.2727 5.93989 21.2727 9.8508C21.2727 13.7617 17.1109 16.9417 12 16.9417C11.5939 16.9517 11.1929 17.0348 10.8164 17.1872C9.45433 17.8067 8.17228 18.5887 6.99817 19.5163C6.89453 16.5108 6.45272 15.5563 5.68363 15.0272C3.81817 13.6908 2.72726 11.8035 2.72726 9.85626C2.72726 5.93989 6.88908 2.76535 12 2.76535M12 1.12898C5.99999 1.12898 1.0909 5.03444 1.0909 9.85626C1.0909 12.4417 2.49272 14.7653 4.72908 16.3635C5.27454 16.7563 5.37817 19.0908 5.37817 20.869C5.376 20.9958 5.39884 21.1217 5.44536 21.2397C5.49189 21.3577 5.5612 21.4653 5.64933 21.5565C5.73747 21.6477 5.8427 21.7206 5.95902 21.7711C6.07534 21.8216 6.20047 21.8487 6.32726 21.8508C6.52587 21.843 6.71687 21.7723 6.87272 21.649C8.24181 20.5908 10.1945 19.1781 11.3727 18.7308C11.5711 18.6448 11.7839 18.5967 12 18.589C18 18.589 22.9091 14.6781 22.9091 9.86171C22.9091 5.04535 18 1.13444 12 1.13444V1.12898Z" fill="var(--fill-0, #666666)"/>
<path id="Vector_2" d="M15.5458 7.63672H8.4549C8.23791 7.63672 8.0298 7.72292 7.87636 7.87636C7.72292 8.0298 7.63672 8.23791 7.63672 8.4549C7.63672 8.6719 7.72292 8.88 7.87636 9.03344C8.0298 9.18688 8.23791 9.27308 8.4549 9.27308H15.5458C15.7628 9.27308 15.9709 9.18688 16.1244 9.03344C16.2778 8.88 16.364 8.6719 16.364 8.4549C16.364 8.23791 16.2778 8.0298 16.1244 7.87636C15.9709 7.72292 15.7628 7.63672 15.5458 7.63672ZM14.4549 11.4549H9.54581C9.32881 11.4549 9.12071 11.5411 8.96727 11.6945C8.81383 11.848 8.72763 12.0561 8.72763 12.2731C8.72763 12.4901 8.81383 12.6982 8.96727 12.8516C9.12071 13.0051 9.32881 13.0913 9.54581 13.0913H14.4549C14.6719 13.0913 14.88 13.0051 15.0334 12.8516C15.1869 12.6982 15.2731 12.4901 15.2731 12.2731C15.2731 12.0561 15.1869 11.848 15.0334 11.6945C14.88 11.5411 14.6719 11.4549 14.4549 11.4549Z" fill="var(--fill-0, #666666)"/>
</g>
</svg>
