<svg preserveAspectRatio="none" width="100%" height="100%" overflow="visible" style="display: block;" viewBox="0 0 24 24" fill="none" xmlns="http://www.w3.org/2000/svg">
<g id="Frame">
<g id="Union">
<path d="M16.4258 2.94667C16.7855 2.50512 17.4354 2.43856 17.877 2.79823C18.3184 3.15791 18.3849 3.80784 18.0254 4.2494L18.0176 4.25917L18.0156 4.26112L17.8789 4.42909L17.7207 4.62245L17.7139 4.63124L17.4395 4.96815L16.8359 5.70936L16.8105 5.74061L15.6836 7.12343L13.1338 10.2523L16.2051 14.0209C16.5978 13.8813 17.0204 13.8051 17.4609 13.8051C19.532 13.8051 21.2109 15.484 21.2109 17.5551C21.2108 19.6261 19.532 21.3051 17.4609 21.3051C15.3899 21.3051 13.711 19.6261 13.7109 17.5551C13.7109 16.6741 14.0149 15.864 14.5234 15.224L11.8037 11.8851L9.28418 14.9769C9.92099 15.649 10.3125 16.5561 10.3125 17.5551C10.3124 19.6261 8.63351 21.3051 6.5625 21.3051C4.49149 21.3051 2.8126 19.6261 2.8125 17.5551C2.8125 15.484 4.49142 13.8051 6.5625 13.8051C6.88095 13.8051 7.19012 13.8446 7.48535 13.9193L10.4727 10.2514L7.9248 7.12343L6.79785 5.74061L6.77246 5.70936L6.16895 4.96815L5.89453 4.63124L5.88672 4.62245C5.84271 4.56839 5.80126 4.51716 5.72949 4.42909L5.59277 4.26112L5.59082 4.25917L5.58301 4.2494C5.22344 3.80784 5.28994 3.15793 5.73145 2.79823C6.17298 2.43863 6.82293 2.50515 7.18262 2.94667L7.3291 3.12636L7.45801 3.28456L7.46484 3.29335L7.47949 3.31093L7.48633 3.31971L7.76758 3.66542L9.52344 5.82069L11.8037 8.61854L14.084 5.82069L15.8408 3.66542L16.1221 3.31971L16.1289 3.31093L16.1436 3.29335L16.1504 3.28456L16.2793 3.12636L16.4258 2.94667ZM6.5625 15.8676C5.63051 15.8676 4.875 16.6231 4.875 17.5551C4.8751 18.487 5.63057 19.2426 6.5625 19.2426C7.49443 19.2426 8.2499 18.487 8.25 17.5551C8.25 16.6231 7.49449 15.8676 6.5625 15.8676ZM17.4609 15.8676C16.5289 15.8676 15.7734 16.6231 15.7734 17.5551C15.7735 18.487 16.529 19.2426 17.4609 19.2426C18.3929 19.2426 19.1483 18.487 19.1484 17.5551C19.1484 16.6231 18.3929 15.8676 17.4609 15.8676Z" fill="var(--fill-0, #666666)"/>
<path d="M16.4258 2.94667L16.6196 3.10463L16.6196 3.10457L16.4258 2.94667ZM17.877 2.79823L18.0349 2.60441L18.0348 2.6044L17.877 2.79823ZM18.0254 4.2494L17.8315 4.09155L17.8302 4.09323L18.0254 4.2494ZM18.0176 4.25917L18.1944 4.43594L18.2041 4.42615L18.2128 4.41534L18.0176 4.25917ZM18.0156 4.26112L17.8388 4.08434L17.8298 4.09339L17.8217 4.1033L18.0156 4.26112ZM17.8789 4.42909L18.0724 4.5874L18.0728 4.58691L17.8789 4.42909ZM17.7207 4.62245L17.5272 4.46409L17.5234 4.46896L17.7207 4.62245ZM17.7139 4.63124L17.9078 4.78916L17.9112 4.78472L17.7139 4.63124ZM17.4395 4.96815L17.2456 4.81027L17.2456 4.8103L17.4395 4.96815ZM16.8359 5.70936L16.6421 5.55151L16.6419 5.55171L16.8359 5.70936ZM16.8105 5.74061L17.0043 5.89855L17.0046 5.89826L16.8105 5.74061ZM15.6836 7.12343L15.4898 6.96549L15.4898 6.9655L15.6836 7.12343ZM13.1338 10.2523L12.94 10.0944L12.8113 10.2523L12.94 10.4103L13.1338 10.2523ZM16.2051 14.0209L16.0113 14.1788L16.1227 14.3155L16.2888 14.2565L16.2051 14.0209ZM21.2109 17.5551L21.4609 17.5551V17.5551H21.2109ZM13.7109 17.5551H13.4609V17.5551L13.7109 17.5551ZM14.5234 15.224L14.7192 15.3795L14.8443 15.2221L14.7173 15.0661L14.5234 15.224ZM11.8037 11.8851L11.9975 11.7273L11.8038 11.4893L11.6099 11.7272L11.8037 11.8851ZM9.28418 14.9769L9.09038 14.819L8.95156 14.9894L9.1027 15.1489L9.28418 14.9769ZM10.3125 17.5551L10.5625 17.5551V17.5551H10.3125ZM2.8125 17.5551H2.5625V17.5551L2.8125 17.5551ZM7.48535 13.9193L7.42402 14.1617L7.57854 14.2008L7.6792 14.0772L7.48535 13.9193ZM10.4727 10.2514L10.6665 10.4092L10.7951 10.2513L10.6665 10.0935L10.4727 10.2514ZM7.9248 7.12343L8.11864 6.96554L8.1186 6.96549L7.9248 7.12343ZM6.79785 5.74061L6.60382 5.89826L6.60406 5.89855L6.79785 5.74061ZM6.77246 5.70936L6.96649 5.55171L6.96633 5.55151L6.77246 5.70936ZM6.16895 4.96815L6.36281 4.8103L6.36278 4.81027L6.16895 4.96815ZM5.89453 4.63124L6.08855 4.47321L6.08138 4.46515L5.89453 4.63124ZM5.88672 4.62245L5.69266 4.78044L5.69987 4.78854L5.88672 4.62245ZM5.72949 4.42909L5.5356 4.58691L5.53569 4.58702L5.72949 4.42909ZM5.59277 4.26112L5.78666 4.1033L5.77859 4.09339L5.76955 4.08434L5.59277 4.26112ZM5.59082 4.25917L5.3956 4.41534L5.40425 4.42615L5.41404 4.43594L5.59082 4.25917ZM5.58301 4.2494L5.77823 4.09322L5.77686 4.09154L5.58301 4.2494ZM5.73145 2.79823L5.57357 2.60439L5.57354 2.60441L5.73145 2.79823ZM7.18262 2.94667L6.98879 3.10457L6.98885 3.10463L7.18262 2.94667ZM7.3291 3.12636L7.52291 2.96844L7.52287 2.96839L7.3291 3.12636ZM7.45801 3.28456L7.6554 3.13103L7.65182 3.12664L7.45801 3.28456ZM7.46484 3.29335L7.26739 3.44692L7.27279 3.45339L7.46484 3.29335ZM7.47949 3.31093L7.67694 3.15735L7.67155 3.15088L7.47949 3.31093ZM7.48633 3.31971L7.28894 3.47324L7.2924 3.47749L7.48633 3.31971ZM7.76758 3.66542L7.57365 3.82319L7.57376 3.82332L7.76758 3.66542ZM9.52344 5.82069L9.32962 5.97859L9.32965 5.97863L9.52344 5.82069ZM11.8037 8.61854L11.6099 8.77648L11.8037 9.01426L11.9975 8.77648L11.8037 8.61854ZM14.084 5.82069L13.8902 5.66274L13.8902 5.66275L14.084 5.82069ZM15.8408 3.66542L16.0346 3.82337L16.0347 3.82319L15.8408 3.66542ZM16.1221 3.31971L16.316 3.47752L16.3194 3.4732L16.1221 3.31971ZM16.1289 3.31093L15.9367 3.15079L15.9316 3.15744L16.1289 3.31093ZM16.1436 3.29335L16.3357 3.45348L16.3409 3.44683L16.1436 3.29335ZM16.1504 3.28456L15.9565 3.1266L15.9531 3.13107L16.1504 3.28456ZM16.2793 3.12636L16.0855 2.96839L16.0855 2.96844L16.2793 3.12636ZM4.875 17.5551H4.625V17.5551L4.875 17.5551ZM8.25 17.5551L8.5 17.5551V17.5551H8.25ZM15.7734 17.5551H15.5234V17.5551L15.7734 17.5551ZM19.1484 17.5551L19.3984 17.5551V17.5551H19.1484ZM16.4258 2.94667L16.6196 3.10457C16.8922 2.77 17.3846 2.71964 17.7191 2.99206L17.877 2.79823L18.0348 2.6044C17.4862 2.15748 16.6788 2.24024 16.232 2.78876L16.4258 2.94667ZM17.877 2.79823L17.719 2.99205C18.0535 3.26455 18.1039 3.75705 17.8315 4.09155L18.0254 4.2494L18.2193 4.40725C18.6659 3.85863 18.5834 3.05127 18.0349 2.60441L17.877 2.79823ZM18.0254 4.2494L17.8302 4.09323L17.8224 4.10299L18.0176 4.25917L18.2128 4.41534L18.2206 4.40558L18.0254 4.2494ZM18.0176 4.25917L17.8408 4.08239L17.8388 4.08434L18.0156 4.26112L18.1924 4.4379L18.1944 4.43594L18.0176 4.25917ZM18.0156 4.26112L17.8217 4.1033L17.685 4.27127L17.8789 4.42909L18.0728 4.58691L18.2095 4.41894L18.0156 4.26112ZM17.8789 4.42909L17.6854 4.27078L17.5272 4.46414L17.7207 4.62245L17.9142 4.78076L18.0724 4.5874L17.8789 4.42909ZM17.7207 4.62245L17.5234 4.46896L17.5165 4.47775L17.7139 4.63124L17.9112 4.78472L17.918 4.77593L17.7207 4.62245ZM17.7139 4.63124L17.52 4.47336L17.2456 4.81027L17.4395 4.96815L17.6333 5.12603L17.9077 4.78912L17.7139 4.63124ZM17.4395 4.96815L17.2456 4.8103L16.6421 5.55151L16.8359 5.70936L17.0298 5.86721L17.6333 5.126L17.4395 4.96815ZM16.8359 5.70936L16.6419 5.55171L16.6165 5.58296L16.8105 5.74061L17.0046 5.89826L17.03 5.86701L16.8359 5.70936ZM16.8105 5.74061L16.6168 5.58268L15.4898 6.96549L15.6836 7.12343L15.8774 7.28136L17.0043 5.89855L16.8105 5.74061ZM15.6836 7.12343L15.4898 6.9655L12.94 10.0944L13.1338 10.2523L13.3276 10.4103L15.8774 7.28136L15.6836 7.12343ZM13.1338 10.2523L12.94 10.4103L16.0113 14.1788L16.2051 14.0209L16.3989 13.8629L13.3276 10.0944L13.1338 10.2523ZM16.2051 14.0209L16.2888 14.2565C16.6551 14.1263 17.0494 14.0551 17.4609 14.0551V13.8051V13.5551C16.9913 13.5551 16.5404 13.6364 16.1214 13.7853L16.2051 14.0209ZM17.4609 13.8051V14.0551C19.3939 14.0551 20.9609 15.6221 20.9609 17.5551H21.2109H21.4609C21.4609 15.3459 19.6701 13.5551 17.4609 13.5551V13.8051ZM21.2109 17.5551L20.9609 17.5551C20.9608 19.488 19.3939 21.0551 17.4609 21.0551V21.3051V21.5551C19.67 21.5551 21.4608 19.7641 21.4609 17.5551L21.2109 17.5551ZM17.4609 21.3051V21.0551C15.528 21.0551 13.961 19.488 13.9609 17.5551L13.7109 17.5551L13.4609 17.5551C13.461 19.7641 15.2518 21.5551 17.4609 21.5551V21.3051ZM13.7109 17.5551H13.9609C13.9609 16.7326 14.2445 15.977 14.7192 15.3795L14.5234 15.224L14.3277 15.0685C13.7853 15.7511 13.4609 16.6156 13.4609 17.5551H13.7109ZM14.5234 15.224L14.7173 15.0661L11.9975 11.7273L11.8037 11.8851L11.6099 12.043L14.3296 15.3819L14.5234 15.224ZM11.8037 11.8851L11.6099 11.7272L9.09038 14.819L9.28418 14.9769L9.47798 15.1349L11.9975 12.0431L11.8037 11.8851ZM9.28418 14.9769L9.1027 15.1489C9.69742 15.7766 10.0625 16.6228 10.0625 17.5551H10.3125H10.5625C10.5625 16.4894 10.1446 15.5215 9.46566 14.805L9.28418 14.9769ZM10.3125 17.5551L10.0625 17.5551C10.0624 19.488 8.49543 21.0551 6.5625 21.0551V21.3051V21.5551C8.7716 21.5551 10.5624 19.7641 10.5625 17.5551L10.3125 17.5551ZM6.5625 21.3051V21.0551C4.62957 21.0551 3.0626 19.488 3.0625 17.5551L2.8125 17.5551L2.5625 17.5551C2.56261 19.7641 4.3534 21.5551 6.5625 21.5551V21.3051ZM2.8125 17.5551H3.0625C3.0625 15.6221 4.62949 14.0551 6.5625 14.0551V13.8051V13.5551C4.35335 13.5551 2.5625 15.3459 2.5625 17.5551H2.8125ZM6.5625 13.8051V14.0551C6.86018 14.0551 7.14875 14.092 7.42402 14.1617L7.48535 13.9193L7.54668 13.677C7.23149 13.5972 6.90172 13.5551 6.5625 13.5551V13.8051ZM7.48535 13.9193L7.6792 14.0772L10.6665 10.4092L10.4727 10.2514L10.2788 10.0935L7.29151 13.7615L7.48535 13.9193ZM10.4727 10.2514L10.6665 10.0935L8.11864 6.96554L7.9248 7.12343L7.73097 7.28131L10.2788 10.4092L10.4727 10.2514ZM7.9248 7.12343L8.1186 6.96549L6.99165 5.58268L6.79785 5.74061L6.60406 5.89855L7.73101 7.28136L7.9248 7.12343ZM6.79785 5.74061L6.99188 5.58296L6.96649 5.55171L6.77246 5.70936L6.57843 5.86701L6.60382 5.89826L6.79785 5.74061ZM6.77246 5.70936L6.96633 5.55151L6.36281 4.8103L6.16895 4.96815L5.97508 5.126L6.5786 5.86721L6.77246 5.70936ZM6.16895 4.96815L6.36278 4.81027L6.08837 4.47336L5.89453 4.63124L5.70069 4.78912L5.97511 5.12603L6.16895 4.96815ZM5.89453 4.63124L6.08138 4.46515L6.07357 4.45636L5.88672 4.62245L5.69987 4.78854L5.70768 4.79733L5.89453 4.63124ZM5.88672 4.62245L6.08059 4.46461C6.03767 4.41188 5.99454 4.3586 5.92329 4.27116L5.72949 4.42909L5.53569 4.58702C5.60797 4.67572 5.64776 4.7249 5.69284 4.78029L5.88672 4.62245ZM5.72949 4.42909L5.92338 4.27127L5.78666 4.1033L5.59277 4.26112L5.39888 4.41894L5.5356 4.58691L5.72949 4.42909ZM5.59277 4.26112L5.76955 4.08434L5.7676 4.08239L5.59082 4.25917L5.41404 4.43594L5.416 4.4379L5.59277 4.26112ZM5.59082 4.25917L5.78604 4.10299L5.77822 4.09323L5.58301 4.2494L5.38779 4.40558L5.3956 4.41534L5.59082 4.25917ZM5.58301 4.2494L5.77686 4.09154C5.50449 3.75705 5.55484 3.26457 5.88935 2.99205L5.73145 2.79823L5.57354 2.60441C5.02503 3.05128 4.9424 3.85863 5.38915 4.40726L5.58301 4.2494ZM5.73145 2.79823L5.88932 2.99207C6.22377 2.71968 6.71628 2.77005 6.98879 3.10457L7.18262 2.94667L7.37644 2.78877C6.92959 2.24025 6.12219 2.15757 5.57357 2.60439L5.73145 2.79823ZM7.18262 2.94667L6.98885 3.10463L7.13533 3.28432L7.3291 3.12636L7.52287 2.96839L7.37639 2.7887L7.18262 2.94667ZM7.3291 3.12636L7.13529 3.28427L7.2642 3.44248L7.45801 3.28456L7.65182 3.12664L7.52291 2.96844L7.3291 3.12636ZM7.45801 3.28456L7.26067 3.43804L7.26751 3.44683L7.46484 3.29335L7.66218 3.13986L7.65535 3.13107L7.45801 3.28456ZM7.46484 3.29335L7.27279 3.45339L7.28744 3.47097L7.47949 3.31093L7.67155 3.15088L7.6569 3.1333L7.46484 3.29335ZM7.47949 3.31093L7.28215 3.46441L7.28899 3.4732L7.48633 3.31971L7.68367 3.16623L7.67683 3.15744L7.47949 3.31093ZM7.48633 3.31971L7.2924 3.47749L7.57365 3.82319L7.76758 3.66542L7.96151 3.50765L7.68026 3.16194L7.48633 3.31971ZM7.76758 3.66542L7.57376 3.82332L9.32962 5.97859L9.52344 5.82069L9.71726 5.66279L7.9614 3.50752L7.76758 3.66542ZM9.52344 5.82069L9.32965 5.97863L11.6099 8.77648L11.8037 8.61854L11.9975 8.4606L9.71723 5.66275L9.52344 5.82069ZM11.8037 8.61854L11.9975 8.77648L14.2778 5.97863L14.084 5.82069L13.8902 5.66275L11.6099 8.4606L11.8037 8.61854ZM14.084 5.82069L14.2778 5.97865L16.0346 3.82337L15.8408 3.66542L15.647 3.50746L13.8902 5.66274L14.084 5.82069ZM15.8408 3.66542L16.0347 3.82319L16.316 3.47749L16.1221 3.31971L15.9281 3.16194L15.6469 3.50765L15.8408 3.66542ZM16.1221 3.31971L16.3194 3.4732L16.3262 3.46441L16.1289 3.31093L15.9316 3.15744L15.9247 3.16623L16.1221 3.31971ZM16.1289 3.31093L16.321 3.47097L16.3356 3.45339L16.1436 3.29335L15.9515 3.1333L15.9369 3.15088L16.1289 3.31093ZM16.1436 3.29335L16.3409 3.44683L16.3477 3.43804L16.1504 3.28456L15.9531 3.13107L15.9462 3.13986L16.1436 3.29335ZM16.1504 3.28456L16.3442 3.44248L16.4731 3.28427L16.2793 3.12636L16.0855 2.96844L15.9566 3.12664L16.1504 3.28456ZM16.2793 3.12636L16.4731 3.28432L16.6196 3.10463L16.4258 2.94667L16.232 2.7887L16.0855 2.96839L16.2793 3.12636ZM6.5625 15.8676V15.6176C5.49244 15.6176 4.625 16.485 4.625 17.5551H4.875H5.125C5.125 16.7611 5.76858 16.1176 6.5625 16.1176V15.8676ZM4.875 17.5551L4.625 17.5551C4.62512 18.625 5.49247 19.4926 6.5625 19.4926V19.2426V18.9926C5.76867 18.9926 5.12509 18.3489 5.125 17.555L4.875 17.5551ZM6.5625 19.2426V19.4926C7.63253 19.4926 8.49988 18.625 8.5 17.5551L8.25 17.5551L8 17.555C7.99991 18.3489 7.35633 18.9926 6.5625 18.9926V19.2426ZM8.25 17.5551H8.5C8.5 16.485 7.63256 15.6176 6.5625 15.6176V15.8676V16.1176C7.35642 16.1176 8 16.7611 8 17.5551H8.25ZM17.4609 15.8676V15.6176C16.3909 15.6176 15.5234 16.485 15.5234 17.5551H15.7734H16.0234C16.0234 16.7611 16.667 16.1176 17.4609 16.1176V15.8676ZM15.7734 17.5551L15.5234 17.5551C15.5236 18.625 16.3909 19.4926 17.4609 19.4926V19.2426V18.9926C16.6671 18.9926 16.0235 18.3489 16.0234 17.555L15.7734 17.5551ZM17.4609 19.2426V19.4926C18.531 19.4926 19.3983 18.625 19.3984 17.5551L19.1484 17.5551L18.8984 17.555C18.8983 18.3489 18.2548 18.9926 17.4609 18.9926V19.2426ZM19.1484 17.5551H19.3984C19.3984 16.485 18.531 15.6176 17.4609 15.6176V15.8676V16.1176C18.2549 16.1176 18.8984 16.7611 18.8984 17.5551H19.1484Z" fill="var(--stroke-0, white)"/>
</g>
</g>
</svg>
